<?xml version="1.0" standalone="no"?>
<!DOCTYPE svg PUBLIC "-//W3C//DTD SVG 1.1//EN" "http://www.w3.org/Graphics/SVG/1.1/DTD/svg11.dtd" >
<svg xmlns="http://www.w3.org/2000/svg" xmlns:xlink="http://www.w3.org/1999/xlink" version="1.1">
<metadata>
Created by FontForge 20161013 at Sat Aug 13 11:35:48 2005
 By ,,,
Copr.1993 Tobias Frere-Jones. Produced by The Font Bureau, Inc. Based on a design by S.H. deRoos.
</metadata>
<defs>
<font id="Nobel-Regular" horiz-adv-x="730" >
  <font-face 
    font-family="Nobel"
    font-weight="400"
    font-stretch="normal"
    units-per-em="1000"
    panose-1="2 0 6 3 3 0 0 2 0 3"
    ascent="800"
    descent="-200"
    x-height="416"
    cap-height="730"
    bbox="-68 -189 1114 935"
    underline-thickness="20"
    underline-position="-153"
    unicode-range="U+0005-2122"
  />
<missing-glyph horiz-adv-x="500" 
 />
    <glyph glyph-name=".notdef" horiz-adv-x="500" 
 />
    <glyph glyph-name=".null" horiz-adv-x="0" 
 />
    <glyph glyph-name="nonmarkingreturn" horiz-adv-x="150" 
 />
    <glyph glyph-name="breve" horiz-adv-x="500" 
d="M398 635q-6 -72 -46.5 -109.5t-101.5 -37.5t-101.5 37.5t-46.5 109.5h72q1 -15 6.5 -29t14.5 -25.5t22.5 -18.5t32.5 -7t32.5 7t23 18.5t14.5 26t6 28.5h72v0z" />
    <glyph glyph-name="dotaccent" horiz-adv-x="500" 
d="M204 493v111h92v-111h-92z" />
    <glyph glyph-name="ring" horiz-adv-x="500" 
d="M363 599q0 -24 -9 -44.5t-24 -35.5t-35.5 -24t-44.5 -9t-44.5 9t-35.5 24t-24 35.5t-9 44.5t9 44.5t24 35.5t35.5 24t44.5 9t44.5 -9t35.5 -24t24 -35.5t9 -44.5zM304 599q0 23 -15.5 38.5t-38.5 15.5t-38.5 -15.5t-15.5 -38.5t15.5 -38.5t38.5 -15.5t38.5 15.5
t15.5 38.5z" />
    <glyph glyph-name="hungarumlaut" unicode="&#xa;" horiz-adv-x="500" 
d="M321 493h-91l93 147h91zM177 493h-91l93 147h91z" />
    <glyph glyph-name="ogonek" horiz-adv-x="500" 
d="M339 -149q-39 -32 -99 -32q-21 0 -41.5 5.5t-37 16t-26.5 26t-10 35.5q0 28 24 56t77 54h66q-25 -17 -41.5 -32t-26 -28t-13.5 -24.5t-4 -21.5q0 -22 12 -30.5t26 -8.5q20 0 34.5 4.5t32.5 16.5l27 -37v0z" />
    <glyph glyph-name="caron" horiz-adv-x="500" 
d="M292 493h-88l-103 147h95l53 -83l53 83h93z" />
    <glyph glyph-name="dotlessi" unicode="&#xd;" horiz-adv-x="215" 
d="M60 0v416h95v-416h-95z" />
    <glyph glyph-name="fraction" horiz-adv-x="382" 
d="M27 0h-95l423 730h95z" />
    <glyph glyph-name="fi" horiz-adv-x="478" 
d="M323 511v115h95v-115h-95zM323 0v416h95v-416h-95zM174 328v-328h-95v328h-60v88h60v221q0 24 9.5 42t24.5 30t34 18t39 6q14 0 25 -0.5t25 -3.5v-83l-10 2q-9 1 -18 0q-15 -2 -24.5 -12t-9.5 -34v-186h65v-88h-65z" />
    <glyph glyph-name="fl" horiz-adv-x="478" 
d="M323 0v730h95v-730h-95zM174 328v-328h-95v328h-60v88h60v221q0 24 9.5 42t24.5 30t34 18t39 6q14 0 25 -0.5t25 -3.5v-83l-10 2q-9 1 -18 0q-15 -2 -24.5 -12t-9.5 -34v-186h65v-88h-65z" />
    <glyph glyph-name="Lslash" horiz-adv-x="509" 
d="M105 0v290l-49 -20l-37 82l86 35v343h100v-303l151 61l36 -82l-187 -76v-236h277v-94h-377z" />
    <glyph glyph-name="lslash" horiz-adv-x="279" 
d="M182 333v-333h-95v294l-49 -20l-33 73l82 33v350h95v-311l60 24l32 -73z" />
    <glyph glyph-name="Zcaron" horiz-adv-x="618" 
d="M199 112q-6 -8 -8 -11t-4 -4h7q3 0 6.5 0.5t7.5 0.5h366v-98h-560l382 614q2 3 4.5 6.5t4.5 6.5q3 4 5 6q-3 -1 -7 -1h-14h-312v98h509zM350 788h-88l-103 147h95l53 -83l53 83h93z" />
    <glyph glyph-name="zcaron" horiz-adv-x="432" 
d="M195 100q-4 -6 -7 -9q-2 -3 -4 -4h5q2 0 5.5 0.5t6.5 0.5h192v-88h-377l216 318q4 6 6 8t4 3q-2 -1 -5 -1h-11h-171v88h357zM273 493h-88l-103 147h95l53 -83l53 83h93z" />
    <glyph glyph-name="space" unicode=" " horiz-adv-x="150" 
 />
    <glyph glyph-name="space" unicode="&#xa0;" horiz-adv-x="150" 
 />
    <glyph glyph-name="exclam" unicode="!" horiz-adv-x="213" 
d="M136 156h-65l-20 279v295h105v-295zM51 0v110h105v-110h-105z" />
    <glyph glyph-name="quotedbl" unicode="&#x22;" horiz-adv-x="341" 
d="M271 513h-55l-20 110v107h95v-107zM125 513h-55l-20 110v107h95v-107z" />
    <glyph glyph-name="numbersign" unicode="#" horiz-adv-x="616" 
d="M446 207l-18 -207h-90l18 207h-124l-18 -207h-90l18 207h-97v76h104l15 167h-119v76h125l18 204h90l-18 -204h124l18 204h90l-18 -204h97v-76h-104l-14 -167h118v-76h-125zM253 450l-14 -167h124l15 167h-125z" />
    <glyph glyph-name="dollar" unicode="$" horiz-adv-x="570" 
d="M537 193q0 -42 -16.5 -75.5t-46 -58.5t-69 -40t-84.5 -19v-79h-73v79q-35 4 -68.5 15t-63.5 27t-54.5 34.5t-40.5 38.5l64 62q12 -12 29 -25t38.5 -25t45.5 -21.5t50 -13.5v266q-36 15 -70 32.5t-61 40.5t-43.5 54t-16.5 74q0 41 16 71.5t42.5 51.5t61 32.5t71.5 15.5v58
h73v-58q31 -3 59.5 -11.5t52 -19t41 -22.5t27.5 -22l-53 -73q-31 26 -62.5 39.5t-64.5 18.5v-209q39 -17 77.5 -37t69 -47.5t50 -64.5t19.5 -89zM248 641q-18 -3 -34.5 -8.5t-29.5 -14.5t-21 -22.5t-8 -32.5q0 -35 26 -57.5t67 -42.5v178zM433 193q0 49 -32.5 79.5
t-79.5 53.5v-235q50 7 81 32t31 70z" />
    <glyph glyph-name="percent" unicode="%" horiz-adv-x="740" 
d="M334 556q0 -41 -10 -75.5t-28.5 -60.5t-45.5 -40.5t-60 -14.5q-27 0 -52 11.5t-44.5 35t-31.5 59t-12 82.5q0 40 10 74.5t28.5 60t45 40t59.5 14.5q34 0 60.5 -15t44.5 -40.5t27 -59t9 -71.5zM166 0h-101l499 730h101zM690 179q0 -41 -10 -75.5t-28.5 -60.5t-45.5 -40.5
t-60 -14.5q-27 0 -52 11.5t-44.5 35t-31.5 59t-12 82.5q0 40 10 74.5t28.5 60t45 40t59.5 14.5q34 0 60.5 -15t44.5 -40.5t27 -59t9 -71.5zM250 553q0 19 -3.5 40t-10.5 37.5t-18 27.5t-26 11t-26.5 -10.5t-18.5 -27t-10.5 -37t-3.5 -41.5q0 -20 3 -40.5t10 -37t18 -27
t26 -10.5q16 0 27.5 10.5t19 27t10.5 37t3 40.5zM606 176q0 19 -3.5 40t-10.5 37.5t-18 27.5t-26 11t-26.5 -10.5t-18.5 -27t-10.5 -37t-3.5 -41.5q0 -20 3 -40.5t10 -37t18 -27t26 -10.5q16 0 27.5 10.5t19 27t10.5 37t3 40.5z" />
    <glyph glyph-name="ampersand" unicode="&#x26;" horiz-adv-x="642" 
d="M504 0l-54 63q-51 -35 -101 -55t-113 -20q-42 0 -80 14t-66.5 39t-45 59t-16.5 74q0 37 12 70t32 61t45.5 50.5t52.5 39.5l-38 44q-23 27 -40.5 60.5t-17.5 73.5q0 35 14 65.5t38 53.5t55.5 36.5t66.5 13.5q40 0 72.5 -12.5t55.5 -35t35.5 -53.5t12.5 -67q0 -34 -12 -62
t-30.5 -51.5t-40.5 -42.5t-42 -35l167 -192q17 17 33 34.5t31 39.5l69 -61q-17 -23 -36.5 -43.5t-39.5 -38.5l107 -122h-126zM329 574q0 36 -20.5 60.5t-58.5 24.5q-15 0 -29.5 -7t-25 -18.5t-17 -27t-6.5 -32.5q0 -29 11.5 -50.5t35.5 -48.5l25 -28q8 5 22.5 17t28.5 28.5
t24 37t10 44.5zM227 329q-17 -12 -35 -27t-32.5 -33t-23.5 -39.5t-9 -45.5q0 -23 9.5 -43t25.5 -34.5t37 -23t44 -8.5q85 0 154 54z" />
    <glyph glyph-name="quotesingle" unicode="'" horiz-adv-x="195" 
d="M125 513h-55l-20 110v107h95v-107z" />
    <glyph glyph-name="parenleft" unicode="(" horiz-adv-x="286" 
d="M275 -179q-45 28 -89 75.5t-79 109t-56.5 134.5t-21.5 153q0 69 19.5 136.5t53 127.5t78.5 109.5t95 82.5v-80q-38 -38 -65 -79.5t-44.5 -88t-25.5 -98.5t-8 -110q-1 -122 31 -217t112 -174v-81v0z" />
    <glyph glyph-name="parenright" unicode=")" horiz-adv-x="286" 
d="M259 293q0 -80 -21.5 -153t-56.5 -134.5t-79 -109t-89 -75.5v81q79 79 111 174t31 217q-1 117 -33.5 208t-108.5 168v80q50 -33 94.5 -82.5t78.5 -109.5t53.5 -127.5t19.5 -136.5z" />
    <glyph glyph-name="asterisk" unicode="*" horiz-adv-x="393" 
d="M253 555l55 -91l-41 -32l-71 82l-70 -81l-43 30l56 93l-99 41l16 50l105 -25l9 108h52l8 -108l105 25l18 -49z" />
    <glyph glyph-name="plus" unicode="+" horiz-adv-x="502" 
d="M296 288v-163h-90v163h-171v86h171v163h90v-163h171v-86h-171z" />
    <glyph glyph-name="comma" unicode="," horiz-adv-x="195" 
d="M150 34q0 -28 -8 -55.5t-19.5 -51.5t-24 -43t-20.5 -29h-60q3 9 8 22.5t9 30t7 35t3 36.5v131h105v-76v0z" />
    <glyph glyph-name="hyphen" unicode="-" horiz-adv-x="302" 
d="M45 168v86h212v-86h-212z" />
    <glyph glyph-name="period" unicode="." horiz-adv-x="195" 
d="M45 0v110h105v-110h-105z" />
    <glyph glyph-name="slash" unicode="/" horiz-adv-x="386" 
d="M109 0h-95l263 730h95z" />
    <glyph glyph-name="zero" unicode="0" horiz-adv-x="608" 
d="M568 369q0 -81 -16.5 -150.5t-50 -121t-83.5 -80.5t-117 -29q-54 0 -101.5 23t-83 70t-56 117t-20.5 165q0 80 17 149.5t50 120.5t83 80t116 29q68 0 117.5 -29.5t81.5 -80.5t47.5 -119t15.5 -144zM462 363q0 49 -7.5 99.5t-25.5 91.5t-48.5 67.5t-76.5 26.5
q-44 0 -74.5 -25.5t-49 -66t-27 -91t-8.5 -101.5q0 -50 9.5 -100.5t29 -91t48.5 -65.5t69 -25q46 0 77 25.5t50 66t26.5 90.5t7.5 99z" />
    <glyph glyph-name="one" unicode="1" horiz-adv-x="343" 
d="M174 0v575q-10 -9 -27.5 -19.5t-38.5 -19.5t-43 -15.5t-40 -8.5v94q22 3 48 13t51 25.5t46.5 37t35.5 48.5h67v-730h-99z" />
    <glyph glyph-name="two" unicode="2" horiz-adv-x="583" 
d="M46 0l317 401q32 40 40 68t8 48q0 39 -14 64t-34.5 39.5t-44 20.5t-41.5 6q-36 0 -62 -11.5t-42.5 -31t-24 -45.5t-7.5 -54h-97q0 58 18 102.5t49.5 74.5t74 45t91.5 15q44 0 86 -12.5t75 -39.5t53.5 -69.5t20.5 -103.5q0 -38 -14 -80t-49 -85l-209 -257h291v-95h-485z
" />
    <glyph glyph-name="three" unicode="3" horiz-adv-x="597" 
d="M552 215q0 -36 -12 -75.5t-42.5 -73.5t-83 -56t-132.5 -22q-87 0 -154 22t-105 52l55 78q38 -27 90.5 -45t112.5 -18q45 0 77 12t53 32t31 44.5t10 50.5q0 37 -13.5 62.5t-35.5 41t-49.5 22t-55.5 6.5h-91v88h92q27 0 51 7.5t42 22t28.5 35t10.5 46.5q0 12 -5.5 29.5
t-20.5 34t-41 28.5t-66 12q-32 0 -57.5 -9t-46 -23t-35 -31.5t-24.5 -34.5l-83 44q10 22 28.5 47t48.5 47t72 36.5t98 14.5q74 0 119 -21t70 -51.5t33 -64.5t8 -61q0 -51 -27.5 -90t-63.5 -58q49 -23 81.5 -67.5t32.5 -113.5z" />
    <glyph glyph-name="four" unicode="4" horiz-adv-x="573" 
d="M452 172v-172h-95v172h-333v69l351 489h77v-469h102v-89h-102zM357 563q-2 -5 -5 -9q-2 -4 -5 -8.5t-6 -8.5l-194 -276h210v302z" />
    <glyph glyph-name="five" unicode="5" horiz-adv-x="583" 
d="M540 254q0 -62 -19 -111t-53.5 -83.5t-83 -53t-106.5 -18.5q-35 0 -69 7t-65 18.5t-57 26t-43 29.5l52 79q15 -11 35 -23t43.5 -21.5t50 -16t53.5 -6.5q41 0 71 14.5t49.5 38.5t29 54t9.5 61q0 35 -10 64.5t-28.5 51.5t-45 34t-59.5 12q-44 0 -79.5 -20.5t-55.5 -60.5
l-76 9l31 391h382v-90h-296l-14 -178q20 17 48.5 28t76.5 11q54 0 96.5 -19t72 -52.5t45 -78.5t15.5 -97z" />
    <glyph glyph-name="six" unicode="6" horiz-adv-x="550" 
d="M518 225q0 -48 -17 -91.5t-48.5 -75.5t-75 -51t-97.5 -19q-49 0 -92 17t-74.5 49t-50 78.5t-18.5 105.5q0 52 9.5 99t24.5 87.5t33 75.5t35 63l101 167h110l-85 -137q-5 -8 -19 -30t-30.5 -48.5t-31.5 -53t-21 -42.5q24 25 55.5 38t63.5 13q55 0 97.5 -19.5t71.5 -53
t44 -78t15 -94.5zM419 227q0 36 -10.5 65t-29 49.5t-43 32t-52.5 11.5q-32 0 -57.5 -12t-44 -33t-28.5 -48.5t-10 -58.5q0 -37 11 -66.5t30 -50.5t44.5 -32.5t53.5 -11.5q31 0 56 12.5t43 34t27.5 49.5t9.5 59z" />
    <glyph glyph-name="seven" unicode="7" horiz-adv-x="529" 
d="M190 0h-111l291 638h-311v92h457z" />
    <glyph glyph-name="eight" unicode="8" horiz-adv-x="616" 
d="M571 208q0 -51 -18 -92t-51.5 -69.5t-82 -43.5t-108.5 -15t-108 15t-81.5 43.5t-52 69t-18.5 92.5q0 39 10.5 69t26.5 51.5t36 36t39 22.5q-17 10 -32.5 22.5t-28.5 29.5t-20.5 40.5t-7.5 55.5q0 50 19 88.5t51.5 65t75.5 40t91 13.5q52 0 95.5 -15t74.5 -42.5
t48.5 -65.5t17.5 -84q0 -28 -7.5 -51t-20 -41.5t-28.5 -32t-33 -23.5q19 -8 39.5 -22.5t36.5 -37t26.5 -52t10.5 -67.5zM444 535q0 53 -35.5 86t-97.5 33q-26 0 -50.5 -8t-43.5 -23.5t-30 -37.5t-11 -50q0 -29 11.5 -50.5t30.5 -36t43.5 -21.5t49.5 -7q28 0 52.5 7.5
t42.5 22.5t28 36.5t10 48.5zM467 208q0 58 -43.5 90t-112.5 32q-74 0 -116 -30.5t-42 -91.5q0 -30 13 -54t35 -40.5t50.5 -25.5t59.5 -9q32 0 60.5 8t49.5 24t33.5 40t12.5 57z" />
    <glyph glyph-name="nine" unicode="9" horiz-adv-x="573" 
d="M531 495q0 -50 -10 -96.5t-25.5 -86t-33 -72.5t-32.5 -56l-130 -202l-84 55l173 257q-26 -23 -57 -33t-61 -10q-48 0 -90.5 17.5t-74 49t-50 76.5t-18.5 99q0 53 18.5 98.5t51 79t77 52.5t95.5 19q55 0 101 -18t79.5 -51t52 -78.5t18.5 -99.5zM427 493q0 36 -10.5 65.5
t-29.5 50t-45.5 32t-59.5 11.5q-32 0 -58 -13t-44 -35t-27.5 -51t-9.5 -62q0 -35 11 -63t30 -47.5t44.5 -30.5t53.5 -11q32 0 59 11.5t46 32t29.5 49t10.5 61.5z" />
    <glyph glyph-name="colon" unicode=":" horiz-adv-x="195" 
d="M45 318v110h105v-110h-105zM45 0v110h105v-110h-105z" />
    <glyph glyph-name="semicolon" unicode=";" horiz-adv-x="195" 
d="M45 318v110h105v-110h-105zM150 34q0 -28 -8 -55.5t-19.5 -51.5t-24 -43t-20.5 -29h-60q3 9 8 22.5t9 30t7 35t3 36.5v131h105v-76v0z" />
    <glyph glyph-name="less" unicode="&#x3c;" horiz-adv-x="370" 
d="M38 287v75l271 183v-105l-186 -115l186 -116v-107z" />
    <glyph glyph-name="equal" unicode="=" horiz-adv-x="522" 
d="M65 388v86h392v-86h-392zM65 192v86h392v-86h-392z" />
    <glyph glyph-name="greater" unicode="&#x3e;" horiz-adv-x="370" 
d="M61 102v107l186 116l-186 115v105l271 -183v-75z" />
    <glyph glyph-name="question" unicode="?" horiz-adv-x="441" 
d="M414 543q0 -35 -9 -63t-23 -53t-31.5 -47.5t-34.5 -45.5q-29 -38 -49 -79.5t-20 -95.5h-97q0 38 8.5 70t22 60t30.5 52t33 46q29 38 49.5 72t20.5 78q0 23 -7 44.5t-20 38t-32 26t-44 9.5q-40 0 -72.5 -21t-56.5 -51l-66 67q39 46 86 69t109 23q49 0 87 -15t63.5 -41.5
t39 -63t13.5 -79.5zM146 0v110h105v-110h-105z" />
    <glyph glyph-name="at" unicode="@" horiz-adv-x="844" 
d="M799 395q0 -67 -17 -113.5t-41.5 -75.5t-53 -42t-51.5 -13q-43 0 -62.5 15.5t-29.5 40.5q-27 -23 -68.5 -39.5t-95.5 -16.5q-39 0 -68 11t-48.5 30t-29.5 44.5t-10 54.5q0 34 15.5 61.5t43 46.5t67 29t87.5 10h100q0 53 -28 70.5t-80 17.5q-79 0 -133 -24l-28 57
q15 9 33.5 15t39 9.5t40.5 5.5t37 2q43 0 78 -6.5t59 -23t37 -45t13 -73.5v-207q0 -20 10 -26.5t31 -6.5q13 0 30 10t32.5 32t26 58t10.5 89q0 58 -22.5 111t-64.5 94t-102 65.5t-134 24.5q-67 0 -125.5 -25.5t-102.5 -69t-69.5 -102.5t-25.5 -126q0 -66 25.5 -125
t69.5 -102.5t102.5 -69t125.5 -25.5q29 0 61 5.5t69 22.5l22 -49q-42 -19 -79.5 -26t-72.5 -7q-78 0 -146.5 29.5t-120 81t-81 120t-29.5 146.5t29.5 146.5t81 120t120 81t146.5 29.5q82 0 151.5 -27t119.5 -74.5t78 -110.5t28 -135zM535 376h-99q-66 0 -98 -22t-32 -63
q0 -15 4 -28t15 -23t30.5 -15.5t50.5 -5.5q32 0 68 14t61 40v103z" />
    <glyph glyph-name="A" unicode="A" horiz-adv-x="676" 
d="M540 0l-88 236h-233l-88 -236h-106l280 730h64l282 -730h-111zM341 534q-2 3 -2.5 6.5t-1.5 6.5q-1 4 -2 7q-1 -3 -2 -7q-1 -3 -1.5 -6.5t-1.5 -5.5l-76 -205h163z" />
    <glyph glyph-name="B" unicode="B" horiz-adv-x="560" 
d="M519 198q0 -34 -12.5 -69.5t-39.5 -64t-70 -46.5t-103 -18h-219v730h193q46 0 85 -13.5t67.5 -38.5t44 -60t15.5 -78q0 -63 -24.5 -104t-59.5 -64q21 -6 43 -21.5t40 -38t29 -51.5t11 -63zM376 532q0 49 -31.5 76.5t-93.5 27.5h-76v-231h67q41 0 67 11.5t41 29.5
t20.5 40.5t5.5 45.5zM415 206q0 48 -33 76.5t-89 28.5h-118v-217h108q68 0 100 30.5t32 81.5z" />
    <glyph glyph-name="C" unicode="C" 
d="M691 125q-42 -59 -116.5 -98t-171.5 -39q-67 0 -131 26.5t-114.5 75t-81.5 118.5t-31 157q0 79 27 148t75 120t114.5 80t145.5 29q99 0 162.5 -31t107.5 -83l-74 -66q-38 39 -86 60.5t-108 21.5q-53 0 -100.5 -20t-83 -56t-56 -87t-20.5 -114q0 -71 24 -123.5t61.5 -87.5
t83 -52.5t87.5 -17.5q53 0 110 23t104 78l72 -62v0z" />
    <glyph glyph-name="D" unicode="D" horiz-adv-x="696" 
d="M651 367q0 -76 -27 -143t-78.5 -116.5t-125.5 -78.5t-168 -29h-177v730h186q93 0 166 -28.5t122.5 -78t75.5 -115.5t26 -141zM547 366q0 56 -20.5 105.5t-58 87t-90.5 59.5t-119 22h-84v-550h65q81 0 139 24t95.5 63t55 88.5t17.5 100.5z" />
    <glyph glyph-name="E" unicode="E" horiz-adv-x="553" 
d="M75 0v730h408v-94h-308v-233h301v-94h-301v-215h327v-94h-427z" />
    <glyph glyph-name="F" unicode="F" horiz-adv-x="484" 
d="M175 636v-233h245v-94h-245v-309h-100v730h360v-94h-260z" />
    <glyph glyph-name="G" unicode="G" horiz-adv-x="784" 
d="M749 327q0 -74 -27.5 -136.5t-73.5 -107.5t-106.5 -70t-126.5 -25q-69 0 -135.5 27t-118.5 76.5t-84 119t-32 154.5t29.5 154.5t80.5 119t118.5 76.5t142.5 27q89 0 152.5 -26.5t116.5 -72.5l-61 -74q-48 39 -97 57t-113 18q-55 0 -103.5 -20t-84.5 -56.5t-56.5 -88.5
t-20.5 -115q0 -56 21 -106t58 -88.5t85.5 -61t104.5 -22.5q39 0 74 10.5t63 30t48 46.5t30 60h-220v94h336v0z" />
    <glyph glyph-name="H" unicode="H" horiz-adv-x="700" 
d="M525 0v314h-350v-314h-100v730h100v-322h350v322h100v-730h-100z" />
    <glyph glyph-name="I" unicode="I" horiz-adv-x="250" 
d="M75 0v730h100v-730h-100z" />
    <glyph glyph-name="J" unicode="J" horiz-adv-x="365" 
d="M295 176q0 -35 -11.5 -68.5t-34.5 -60t-59 -43t-85 -16.5q-19 0 -35.5 1t-39.5 8v90q17 -4 34.5 -4.5t32.5 -0.5q49 0 73.5 26.5t24.5 74.5v547h100v-554v0z" />
    <glyph glyph-name="K" unicode="K" horiz-adv-x="646" 
d="M504 0l-293 338l-36 -37v-301h-100v730h100v-299l283 299h128l-308 -322l355 -408h-129z" />
    <glyph glyph-name="L" unicode="L" horiz-adv-x="479" 
d="M75 0v730h100v-636h277v-94h-377z" />
    <glyph glyph-name="M" unicode="M" horiz-adv-x="866" 
d="M691 0v537v10t1 9q0 4 1 9q-2 -3 -4 -7q-4 -8 -6 -10l-229 -309h-40l-231 301q-2 2 -3.5 5t-3.5 5q-2 3 -3 6q0 -5 1 -9q0 -4 0.5 -8.5t0.5 -9.5v-529h-100v730h85l275 -357l267 357h89v-730h-100z" />
    <glyph glyph-name="N" unicode="N" horiz-adv-x="724" 
d="M569 0l-383 529q-2 2 -4 5.5t-4 6.5q-3 4 -5 8q0 -5 1 -9q0 -4 0.5 -8t0.5 -7v-525h-100v730h85l378 -519q2 -3 4.5 -7t4.5 -7q2 -4 4 -7q-1 5 -1 9q-1 5 -1 15v516h100v-730h-80z" />
    <glyph glyph-name="O" unicode="O" horiz-adv-x="838" 
d="M793 365q0 -80 -29.5 -148.5t-80 -119.5t-118.5 -80t-145 -29q-78 0 -146.5 28.5t-119.5 78.5t-80 119.5t-29 152.5q0 80 28 148.5t77.5 119t117.5 79t147 28.5q85 0 154.5 -29t119 -80t77 -120t27.5 -148zM689 369q0 59 -20 109.5t-56 87t-86.5 57.5t-110.5 21
q-59 0 -108.5 -21t-84.5 -57.5t-54.5 -87.5t-19.5 -111q0 -61 22 -112.5t59.5 -89t86.5 -58.5t103 -21t102.5 19.5t85.5 56.5t59 89t22 118z" />
    <glyph glyph-name="P" unicode="P" horiz-adv-x="560" 
d="M533 505q0 -44 -18 -83.5t-48 -69.5t-70 -47.5t-84 -17.5h-138v-287h-100v730h219q55 0 99.5 -17.5t75.5 -47.5t47.5 -71t16.5 -89zM429 511q0 60 -40 92.5t-110 32.5h-104v-255h110q63 0 103.5 33.5t40.5 96.5z" />
    <glyph glyph-name="Q" unicode="Q" horiz-adv-x="838" 
d="M793 365q0 -81 -30 -151t-83 -121q18 -10 37.5 -16t39.5 -7l-68 -81q-25 7 -47 18.5t-42 26.5q-41 -22 -86 -34t-94 -12q-78 0 -146.5 28.5t-119.5 78.5t-80 119.5t-29 152.5q0 80 28 148.5t77.5 119t117.5 79t147 28.5q85 0 154.5 -29t119 -80t77 -120t27.5 -148z
M689 369q0 59 -20 109.5t-56 87t-86.5 57.5t-110.5 21q-59 0 -108.5 -21t-84.5 -57.5t-54.5 -87.5t-19.5 -111q0 -61 22 -112.5t59.5 -89t86.5 -58.5t103 -21t105 20q-29 36 -43 65l65 57q9 -17 22.5 -36t30.5 -37q41 37 65 91t24 123z" />
    <glyph glyph-name="R" unicode="R" horiz-adv-x="610" 
d="M470 0l-295 341v-341h-100v730h236q51 0 92.5 -17t71.5 -46.5t46 -68.5t16 -83t-17 -82t-46 -66.5t-66.5 -44.5t-78.5 -16l269 -306h-128zM433 519q0 19 -8.5 39.5t-26 37.5t-43.5 28.5t-62 11.5h-118v-251h116q68 0 105 37.5t37 96.5z" />
    <glyph glyph-name="S" unicode="S" horiz-adv-x="520" 
d="M483 193q0 -49 -18 -87t-48.5 -64.5t-71 -40t-86.5 -13.5q-56 0 -109.5 16t-104.5 58l57 77q15 -13 33.5 -23t38.5 -17t40.5 -10.5t39.5 -3.5q56 0 90.5 25t34.5 77q0 23 -10 41.5t-26.5 34t-39 28.5t-46.5 25q-39 20 -76.5 40t-67.5 46.5t-48 63t-18 88.5
q0 40 14.5 74.5t42 60t66.5 39.5t88 14q55 0 104.5 -16t92.5 -46l-54 -82q-34 25 -66 35.5t-78 10.5q-43 0 -74 -21t-31 -63q0 -30 12.5 -51t34 -37.5t50.5 -31l63 -31.5q31 -15 61.5 -33.5t55 -44t39.5 -59t15 -79.5z" />
    <glyph glyph-name="T" unicode="T" horiz-adv-x="480" 
d="M287 636v-636h-100v636h-149v94h404v-94h-155z" />
    <glyph glyph-name="U" unicode="U" horiz-adv-x="711" 
d="M641 276q0 -65 -22 -118.5t-60 -91t-90.5 -58t-113.5 -20.5q-63 0 -115.5 19.5t-90 57t-58.5 90.5t-21 121v454h101v-454q0 -53 15 -90t40.5 -60t59 -33.5t69.5 -10.5t69.5 10.5t59.5 34t42 60t16 89.5v454h99v-454v0z" />
    <glyph glyph-name="V" unicode="V" horiz-adv-x="625" 
d="M344 0h-62l-257 730h97l185 -527l2 -8l2 -8t2 -9q1 5 2 9t1.5 8t2.5 8l186 527h95z" />
    <glyph glyph-name="W" unicode="W" horiz-adv-x="919" 
d="M679 0h-68l-148 487q-2 7 -4 13.5t-3 11.5q-2 6 -2 12q-1 -7 -3 -13q-2 -5 -3 -11.5t-3 -12.5l-151 -487h-66l-192 730h98l127 -479l2 -10l2 -10t2 -11q0 6 2 11q1 5 2.5 10.5t3.5 10.5l151 478h66l146 -482q1 -5 2 -9.5t2 -9.5l2 -10l2 10t1.5 10t2.5 10l136 481h97z
" />
    <glyph glyph-name="X" unicode="X" horiz-adv-x="688" 
d="M537 0l-163 249q-5 7 -10 15.5t-10 16.5q-5 9 -11 19q-6 -9 -11 -19q-5 -8 -11 -17t-11 -17l-162 -247h-116l253 385l-224 345h123l140 -216q4 -7 8.5 -13.5t7.5 -11.5q4 -6 7 -13q3 6 7 13q3 6 7.5 12.5t9.5 14.5l141 214h115l-223 -340l254 -390h-121z" />
    <glyph glyph-name="Y" unicode="Y" horiz-adv-x="645" 
d="M371 339v-339h-100v339l-251 391h116l176 -273q2 -2 3.5 -6t3.5 -7l4 -8l4 8q2 3 4 7t4 7l176 272h114z" />
    <glyph glyph-name="Z" unicode="Z" horiz-adv-x="618" 
d="M199 112q-6 -8 -8 -11t-4 -4h7q3 0 6.5 0.5t7.5 0.5h366v-98h-560l382 614q2 3 4.5 6.5t4.5 6.5q3 4 5 6q-3 -1 -7 -1h-14h-312v98h509z" />
    <glyph glyph-name="bracketleft" unicode="[" horiz-adv-x="305" 
d="M75 -179v909h200v-89h-105v-731h105v-89h-200z" />
    <glyph glyph-name="backslash" unicode="\" horiz-adv-x="386" 
d="M277 0l-263 730h95l263 -730h-95z" />
    <glyph glyph-name="bracketright" unicode="]" horiz-adv-x="305" 
d="M30 -179v89h105v731h-105v89h200v-909h-200z" />
    <glyph glyph-name="asciicircum" unicode="^" horiz-adv-x="483" 
d="M346 369l-106 266l-105 -266h-105l163 361h95l165 -361h-107z" />
    <glyph glyph-name="underscore" unicode="_" horiz-adv-x="500" 
d="M0 -129v66h500v-66h-500z" />
    <glyph glyph-name="grave" unicode="`" horiz-adv-x="500" 
d="M255 493l-93 147h96l93 -147h-96z" />
    <glyph glyph-name="a" unicode="a" horiz-adv-x="461" 
d="M316 0v30q-55 -42 -130 -42q-39 0 -68.5 11t-49 30t-29 44.5t-9.5 54.5q0 37 17.5 65t47.5 47.5t71.5 29.5t89.5 10h62q0 38 -18 53t-65 15q-76 0 -128 -23l-33 71q15 9 33.5 15t39 9.5t40.5 5.5t37 2q87 0 137 -28.5t50 -95.5v-304h-95zM316 203h-27q-81 0 -121.5 -17.5
t-40.5 -57.5q0 -15 7.5 -25.5t20 -17.5t27.5 -10t30 -3q16 0 28.5 1.5t24.5 5t24.5 10t26.5 16.5v98z" />
    <glyph glyph-name="b" unicode="b" horiz-adv-x="492" 
d="M457 214q0 -45 -13.5 -86t-38 -72t-58.5 -49.5t-74 -18.5q-43 0 -72.5 19.5t-45.5 42.5v-50h-95v730h95v-364q20 28 50.5 45t67.5 17q40 0 74 -16t58.5 -44.5t38 -68t13.5 -85.5zM360 210q0 26 -6.5 49.5t-20 41.5t-33.5 28.5t-47 10.5q-24 0 -43.5 -11t-33.5 -29
t-21.5 -41.5t-7.5 -48.5t7.5 -49t21.5 -43t33.5 -30.5t42.5 -11.5q27 0 47 10.5t33.5 28.5t20.5 42.5t7 52.5z" />
    <glyph glyph-name="c" unicode="c" horiz-adv-x="460" 
d="M438 89q-15 -20 -35 -38.5t-44 -32.5t-51 -22t-55 -8q-54 0 -95 17t-68.5 47t-41 70t-13.5 86q0 43 15 83t42.5 70.5t66 48.5t86.5 18q36 0 65 -9.5t52.5 -23.5t40 -31t27.5 -33l-69 -52q-8 10 -19 21t-25 20t-31.5 14.5t-39.5 5.5q-27 0 -48 -11.5t-36 -29.5t-22.5 -41
t-7.5 -46q0 -66 33 -101t87 -35q37 0 66.5 18t54.5 47l65 -52v0z" />
    <glyph glyph-name="d" unicode="d" horiz-adv-x="492" 
d="M337 0v46q-16 -23 -45.5 -40.5t-72.5 -17.5q-41 0 -74.5 18t-58 48.5t-38 71t-13.5 85.5q0 46 13.5 85.5t38 69t58 46t74.5 16.5q72 0 118 -56v358h95v-730h-95zM345 210q0 25 -7.5 48.5t-21.5 41.5t-33.5 29t-44.5 11q-26 0 -45.5 -11t-33 -29.5t-20.5 -42.5t-7 -50
t7 -50t20.5 -42t33 -28.5t44.5 -10.5t45 11t34 29.5t21.5 43t7.5 50.5z" />
    <glyph glyph-name="e" unicode="e" horiz-adv-x="490" 
d="M130 196q1 -25 10 -47t25 -38t38.5 -25.5t49.5 -9.5q49 0 79.5 14t59.5 36l58 -60q-39 -34 -85.5 -56t-112.5 -22q-46 0 -85.5 15.5t-69 44t-46 70t-16.5 94.5q0 46 15.5 85.5t44 68.5t67.5 45.5t86 16.5t85.5 -17.5t66 -48t42.5 -73t15 -93.5h-327zM354 268
q-11 36 -40.5 55.5t-69.5 19.5q-41 0 -71.5 -20t-38.5 -55h220v0z" />
    <glyph glyph-name="f" unicode="f" horiz-adv-x="266" 
d="M174 328v-328h-95v328h-60v88h60v221q0 24 9.5 42t24.5 30t34 18t39 6q14 0 25 -0.5t25 -3.5v-83l-10 2q-9 1 -18 0q-15 -2 -24.5 -12t-9.5 -34v-186h65v-88h-65z" />
    <glyph glyph-name="g" unicode="g" horiz-adv-x="492" 
d="M432 4q0 -55 -16.5 -92t-45 -59.5t-65.5 -32t-79 -9.5q-45 0 -88 11t-75 38l47 70q35 -23 62 -28.5t50 -5.5q22 0 43 5t37 15.5t25.5 26t9.5 37.5v65q-21 -29 -51 -43t-67 -14q-41 0 -74.5 16t-58 44.5t-38 68t-13.5 85.5q0 45 13.5 86t38 72t58 49.5t74.5 18.5
q43 0 72.5 -18t45.5 -41v47h95v-412v0zM345 208q0 25 -7.5 48.5t-21.5 42t-33.5 30t-44.5 11.5q-26 0 -45.5 -11t-33 -29t-20.5 -42t-7 -50t7 -50t20.5 -42t33 -29t44.5 -11t45 11t34 29t21.5 42t7.5 50z" />
    <glyph glyph-name="h" unicode="h" horiz-adv-x="473" 
d="M328 0v253q0 46 -23 66.5t-53 20.5q-39 0 -68 -29.5t-29 -87.5v-223h-95v730h95v-364q16 25 46.5 43.5t69.5 18.5q32 0 60 -10t48.5 -29.5t32 -49t11.5 -68.5v-271h-95z" />
    <glyph glyph-name="i" unicode="i" horiz-adv-x="215" 
d="M60 511v115h95v-115h-95zM60 0v416h95v-416h-95z" />
    <glyph glyph-name="j" unicode="j" horiz-adv-x="215" 
d="M60 511v115h95v-115h-95zM155 -62q0 -35 -11.5 -57.5t-29 -36t-39 -18.5t-41.5 -5q-17 0 -25 0.5t-24 4.5v82q20 -2 26 -2.5t17 0.5q4 0 9.5 1t10.5 3.5t8.5 8.5t3.5 17v480h95v-478v0z" />
    <glyph glyph-name="k" unicode="k" horiz-adv-x="470" 
d="M329 0l-129 180l-45 -39v-141h-95v730h95v-473l165 159h131l-181 -170l182 -246h-123z" />
    <glyph glyph-name="l" unicode="l" horiz-adv-x="215" 
d="M60 0v730h95v-730h-95z" />
    <glyph glyph-name="m" unicode="m" horiz-adv-x="725" 
d="M580 0v266q0 38 -20.5 56t-52.5 18q-19 0 -36 -7t-29.5 -19.5t-19.5 -29.5t-7 -36v-248h-95v266q0 38 -21.5 56t-53.5 18q-38 0 -64 -26.5t-26 -66.5v-247h-95v416h95v-40q18 23 47.5 37.5t62.5 14.5q50 0 80.5 -16.5t50.5 -47.5q12 16 28.5 28.5t34.5 20t36.5 11.5
t34.5 4q41 0 68.5 -12t44.5 -33t24.5 -49t7.5 -59v-275h-95z" />
    <glyph glyph-name="n" unicode="n" horiz-adv-x="476" 
d="M331 0v253q0 38 -19 62.5t-60 24.5q-27 0 -45.5 -11t-30 -28t-16.5 -37.5t-5 -39.5v-224h-95v416h95v-50q20 30 51 46t67 16q67 0 110 -39.5t43 -117.5v-271h-95z" />
    <glyph glyph-name="o" unicode="o" horiz-adv-x="496" 
d="M461 215q0 -47 -15.5 -88.5t-44 -72.5t-67.5 -48.5t-87 -17.5q-46 0 -85 15.5t-67 45t-44 70.5t-16 92q0 42 14.5 81t41.5 69.5t66 48.5t88 18t88.5 -17.5t68 -46.5t44 -68t15.5 -81zM364 209q0 61 -32 96t-87 35q-27 0 -48 -10t-35.5 -27.5t-22 -41t-7.5 -50.5
q0 -63 29.5 -99t82.5 -36q32 0 54.5 10t37 28t21.5 42.5t7 52.5z" />
    <glyph glyph-name="p" unicode="p" horiz-adv-x="492" 
d="M457 205q0 -46 -13.5 -85.5t-38 -69t-58.5 -46t-74 -16.5q-37 0 -67.5 15t-50.5 42v-224h-95v595h95v-47q16 23 45.5 41t72.5 18q40 0 74 -18t58.5 -48.5t38 -71t13.5 -85.5zM360 209q0 26 -7 50t-20.5 42t-33 28.5t-44.5 10.5t-45 -11t-34 -29.5t-21.5 -43t-7.5 -50.5
q0 -25 7.5 -48.5t21.5 -41.5t33.5 -29t44.5 -11t45 11t33.5 29.5t20.5 42.5t7 50z" />
    <glyph glyph-name="q" unicode="q" horiz-adv-x="492" 
d="M337 -179v224q-20 -27 -50.5 -42t-67.5 -15q-41 0 -74.5 16t-58 44.5t-38 68t-13.5 85.5q0 45 13.5 86t38 72t58 49.5t74.5 18.5q43 0 72.5 -18t45.5 -41v47h95v-595h-95zM345 208q0 25 -7.5 48.5t-21.5 42t-33.5 30t-44.5 11.5q-26 0 -45.5 -11t-33 -29t-20.5 -42
t-7 -50t7 -50t20.5 -42t33 -29t44.5 -11t45 11t34 29t21.5 42t7.5 50z" />
    <glyph glyph-name="r" unicode="r" horiz-adv-x="354" 
d="M306 317q-17 12 -31.5 16.5t-28.5 4.5q-40 0 -65.5 -33.5t-25.5 -93.5v-211h-95v416h95v-50q45 62 112 62q25 0 43.5 -7.5t38.5 -23.5z" />
    <glyph glyph-name="s" unicode="s" horiz-adv-x="364" 
d="M328 116q0 -26 -10.5 -49t-30 -40t-46 -27t-57.5 -10q-85 0 -150 53l47 71q26 -21 53.5 -30t44.5 -9q20 0 37 8.5t17 27.5q0 22 -17.5 35t-44.5 27q-20 10 -42.5 21t-41 26.5t-30.5 37t-12 53.5q0 24 11 45.5t29.5 37.5t43.5 25t54 9q30 0 65.5 -7t68.5 -30l-39 -75
q-23 16 -48 22.5t-43 6.5q-17 0 -32 -6t-15 -26q0 -17 19.5 -28.5t47.5 -25.5q20 -10 41.5 -22.5t39 -29t29 -39t11.5 -52.5z" />
    <glyph glyph-name="t" unicode="t" horiz-adv-x="290" 
d="M251 -5q-4 -1 -7 -1h-9q-36 0 -64.5 5t-48.5 20t-31 42.5t-11 73.5v193h-57v88h57v195h95v-195h75v-88h-75v-190q0 -33 13.5 -43.5t45.5 -10.5h10q4 0 7 1v-90v0z" />
    <glyph glyph-name="u" unicode="u" horiz-adv-x="481" 
d="M326 0v50q-17 -26 -47.5 -44t-70.5 -18q-75 0 -114 39.5t-39 117.5v271h95v-253q0 -35 20 -61t59 -26q25 0 43 11t30 28t18 37.5t6 39.5v224h95v-416h-95z" />
    <glyph glyph-name="v" unicode="v" horiz-adv-x="421" 
d="M210 -12l-200 428h105l90 -201q3 -7 5 -13q1 -4 2 -7q1 3 2 7q2 8 5 14l91 200h101z" />
    <glyph glyph-name="w" unicode="w" horiz-adv-x="633" 
d="M437 -12l-112 245q-2 3 -3.5 7t-2.5 7q-2 4 -2 7q-2 -3 -3 -7q-2 -3 -2.5 -7t-2.5 -7l-114 -245l-185 428h102l85 -196q1 -3 2.5 -6t2.5 -6q1 -4 2 -7q1 3 3 7q2 3 3 6.5t3 7.5l104 206l103 -206q4 -10 6 -14t3 -7q1 4 3 8q2 3 3 7t3 8l84 192h101z" />
    <glyph glyph-name="x" unicode="x" horiz-adv-x="444" 
d="M318 0l-83 124q-2 3 -4.5 7t-4.5 8q-3 4 -5 8q-2 -5 -4 -9t-4.5 -7.5t-4.5 -6.5l-82 -124h-116l154 229l-125 187h116l54 -81q2 -3 4 -7t4 -7q3 -4 5 -8q2 4 5 8q2 4 4.5 8t4.5 7l53 80h113l-123 -185l155 -231h-116z" />
    <glyph glyph-name="y" unicode="y" horiz-adv-x="424" 
d="M233 -74q-7 -21 -17 -40t-25 -33.5t-37 -23t-53 -8.5q-18 0 -33 1.5t-34 7.5v86q10 -4 20.5 -6.5t20.5 -2.5q23 0 36.5 7t21.5 19t13 27.5t11 31.5l-145 424h103l92 -272q1 -3 2 -7l2 -8l2 -10l2 10q1 7 5 16l91 271h101z" />
    <glyph glyph-name="z" unicode="z" horiz-adv-x="432" 
d="M195 100q-4 -6 -7 -9q-2 -3 -4 -4h5q2 0 5.5 0.5t6.5 0.5h192v-88h-377l216 318q4 6 6 8t4 3q-2 -1 -5 -1h-11h-171v88h357z" />
    <glyph glyph-name="braceleft" unicode="{" horiz-adv-x="320" 
d="M279 -179q-54 17 -87 42t-51 58t-24.5 74.5t-6.5 92.5q0 31 -1 60t-7.5 51t-21 35t-40.5 13v76q26 0 40.5 13t21 35t7.5 50.5t1 60.5q0 51 6.5 92.5t24.5 74.5t51 58t87 42v-60q-23 -17 -37 -35.5t-22.5 -41.5t-11.5 -51.5t-3 -64.5q0 -32 -1.5 -64t-8.5 -60.5t-21.5 -51
t-40.5 -35.5q26 -13 40.5 -35.5t21.5 -51t8.5 -60.5t1.5 -64q0 -36 3 -64.5t11.5 -51.5t22.5 -41.5t37 -35.5v-60v0z" />
    <glyph glyph-name="bar" unicode="|" horiz-adv-x="243" 
d="M75 -179v909h93v-909h-93z" />
    <glyph glyph-name="braceright" unicode="}" horiz-adv-x="320" 
d="M280 247q-26 0 -40.5 -13t-21 -35t-7.5 -51t-1 -60q0 -51 -6.5 -92.5t-24.5 -74.5t-51 -58t-87 -42v60q22 17 36.5 35.5t23 41.5t11.5 51.5t3 64.5q0 32 1.5 64t8.5 60.5t21.5 51t40.5 35.5q-26 13 -40.5 35.5t-21.5 51t-8.5 60.5t-1.5 64q0 36 -3 64.5t-11.5 51.5
t-23 41.5t-36.5 35.5v60q54 -17 87 -42t51 -58t24.5 -74.5t6.5 -92.5q0 -32 1 -60.5t7.5 -50.5t21 -35t40.5 -13v-76v0z" />
    <glyph glyph-name="asciitilde" unicode="~" horiz-adv-x="500" 
d="M460 449q-4 -35 -10.5 -65.5t-20 -53t-36 -35.5t-56.5 -13q-29 0 -56 14.5t-45 28.5q-26 20 -39 28.5t-30 8.5q-16 0 -23.5 -24t-9.5 -53h-94q4 35 10 65.5t19 53t35.5 35t58.5 12.5q29 0 55.5 -14.5t45.5 -28.5q20 -16 36.5 -26.5t32.5 -10.5t23.5 24t9.5 54h94v0z" />
    <glyph glyph-name="exclamdown" unicode="&#xa1;" horiz-adv-x="213" 
d="M51 620v110h105v-110h-105zM51 0v295l20 279h65l20 -279v-295h-105z" />
    <glyph glyph-name="cent" unicode="&#xa2;" horiz-adv-x="460" 
d="M438 89q-27 -37 -70.5 -66t-95.5 -34v-68h-55v69q-45 6 -79.5 25t-57 48t-34 66t-11.5 79q0 40 13 77t36.5 66.5t57 49.5t75.5 25v69h55v-69q30 -3 55 -13t44.5 -23.5t34.5 -29t24 -29.5l-69 -52q-14 18 -35.5 36t-53.5 24v-264q30 5 55 22.5t46 43.5l65 -52v0zM217 338
q-42 -11 -64.5 -47t-22.5 -79q0 -57 23.5 -90.5t63.5 -43.5v260z" />
    <glyph glyph-name="sterling" unicode="&#xa3;" horiz-adv-x="600" 
d="M561 175q2 -29 -1 -61.5t-17.5 -60.5t-42.5 -46.5t-75 -18.5q-18 0 -36.5 5t-36 12.5t-33 16.5t-26.5 17q-27 -24 -64 -37.5t-82 -13.5q-24 0 -46 6t-39 18t-27 30.5t-10 42.5q0 22 10 39.5t27.5 28.5t40.5 17t49 6q32 0 60 -6.5t53 -17.5q2 7 3 15.5t1 15.5
q0 15 -2.5 29.5t-9.5 28.5h-186v48h160q-13 21 -29 40h-131v47h94q-27 39 -48.5 76.5t-21.5 86.5q0 43 16.5 80.5t47 64.5t73.5 42.5t96 15.5q54 0 97.5 -14t73.5 -40.5t44.5 -63.5t11.5 -83h-104q2 22 -4.5 42t-21.5 35t-38.5 24t-56.5 9q-26 0 -49 -6.5t-41 -20.5
t-28.5 -35t-10.5 -49q0 -25 6.5 -46t18 -40.5t26 -38t29.5 -39.5h197v-47h-165q6 -10 11.5 -20t10.5 -20h143v-48h-126q3 -12 5.5 -25t2.5 -27q0 -41 -14 -78q4 -3 13 -7.5t19.5 -8.5t21.5 -6.5t19 -2.5q18 0 27.5 8.5t14.5 22t6 29t1 29.5h93v0zM225 84q-4 4 -12 8t-18.5 8
t-21 6.5t-19.5 2.5q-50 0 -50 -29q0 -17 15.5 -22t29.5 -5q20 0 40.5 8.5t35.5 22.5z" />
    <glyph glyph-name="currency" unicode="&#xa4;" 
d="M282 648v82h166v-82h-166zM648 282v166h82v-166h-82zM282 282v166h166v-166h-166zM0 282v166h82v-166h-82zM282 0v82h166v-82h-166z" />
    <glyph glyph-name="yen" unicode="&#xa5;" horiz-adv-x="615" 
d="M356 339v-68h164v-47h-164v-60h164v-48h-164v-116h-100v116h-164v48h164v60h-164v47h164v68l-251 391h115l187 -290l188 290h115z" />
    <glyph glyph-name="brokenbar" unicode="&#xa6;" 
d="M282 648v82h166v-82h-166zM648 282v166h82v-166h-82zM282 282v166h166v-166h-166zM0 282v166h82v-166h-82zM282 0v82h166v-82h-166z" />
    <glyph glyph-name="section" unicode="&#xa7;" horiz-adv-x="676" 
d="M641 250q0 -49 -29 -98t-77 -81q36 -39 36 -98q0 -43 -15.5 -72t-45 -47t-72 -25.5t-96.5 -7.5q-35 0 -72 5.5t-72 15.5t-66.5 24t-56.5 31l49 75q36 -22 92.5 -41.5t128.5 -19.5q66 0 93 14t27 40t-19.5 43t-53.5 31l-220 85q-75 29 -106 75t-31 114q0 49 29 98t76 81
q-17 19 -26 44t-9 54q0 43 16 72t46 47t72 25.5t95 7.5q78 0 147 -20.5t120 -55.5l-49 -75q-36 22 -90 41.5t-131 19.5q-66 0 -93 -14t-27 -40t19.5 -43t53.5 -31l220 -85q75 -29 106 -75t31 -114zM536 249q0 18 -4 32.5t-14.5 27.5t-29 24.5t-47.5 22.5l-227 89
q-35 -23 -54.5 -54.5t-19.5 -76.5q0 -18 4 -32.5t14.5 -27.5t29 -24.5t47.5 -22.5l227 -89q35 23 54.5 54.5t19.5 76.5z" />
    <glyph glyph-name="dieresis" unicode="&#xa8;" horiz-adv-x="500" 
d="M284 493v111h91v-111h-91zM125 493v111h91v-111h-91z" />
    <glyph glyph-name="copyright" unicode="&#xa9;" horiz-adv-x="844" 
d="M799 365q0 -78 -29.5 -146.5t-81 -120t-120 -81t-146.5 -29.5t-146.5 29.5t-120 81t-81 120t-29.5 146.5t29.5 146.5t81 120t120 81t146.5 29.5t146.5 -29.5t120 -81t81 -120t29.5 -146.5zM745 364q0 67 -25.5 125.5t-69.5 102.5t-102.5 69.5t-125.5 25.5t-125.5 -25.5
t-102.5 -69.5t-69.5 -102.5t-25.5 -125.5t25.5 -125.5t69.5 -102t102.5 -69t125.5 -25.5t125.5 25.5t102.5 69t69.5 102t25.5 125.5zM597 223q-26 -35 -70.5 -58.5t-102.5 -23.5q-40 0 -78.5 15.5t-69 45.5t-49 73.5t-18.5 99.5q0 44 16 83.5t45 69.5t69 48t87 18
q60 0 98 -18.5t64 -50.5l-47 -42q-23 23 -50.5 35t-63.5 12q-32 0 -59.5 -11.5t-47.5 -32.5t-32 -49.5t-12 -61.5q0 -43 14 -75t35.5 -53t48 -31.5t51.5 -10.5q32 0 65 13.5t61 44.5l46 -40v0z" />
    <glyph glyph-name="ordfeminine" unicode="&#xaa;" horiz-adv-x="441" 
d="M291 400v24q-44 -34 -104 -34q-63 0 -93.5 33t-30.5 79q0 30 14 52.5t38 38t57 23.5t71 8h50q0 30 -14.5 42t-51.5 12q-32 0 -56.5 -4t-46.5 -14l-26 57q23 13 57.5 19t62.5 6q70 0 109.5 -22.5t39.5 -76.5v-243h-76zM63 270v66h304v-66h-304zM291 562h-21q-66 0 -98 -14
t-32 -46q0 -24 22 -34.5t46 -10.5q26 0 43 5.5t40 21.5v78z" />
    <glyph glyph-name="guillemotleft" unicode="&#xab;" horiz-adv-x="369" 
d="M184 167v75l142 123v-100l-71 -60l71 -61v-102zM30 167v75l141 123v-100l-71 -60l71 -61v-102z" />
    <glyph glyph-name="logicalnot" unicode="&#xac;" 
d="M282 648v82h166v-82h-166zM648 282v166h82v-166h-82zM282 282v166h166v-166h-166zM0 282v166h82v-166h-82zM282 0v82h166v-82h-166z" />
    <glyph glyph-name="minus" unicode="&#xad;" 
d="M282 648v82h166v-82h-166zM648 282v166h82v-166h-82zM282 282v166h166v-166h-166zM0 282v166h82v-166h-82zM282 0v82h166v-82h-166z" />
    <glyph glyph-name="registered" unicode="&#xae;" horiz-adv-x="844" 
d="M799 365q0 -78 -29.5 -146.5t-81 -120t-120 -81t-146.5 -29.5t-146.5 29.5t-120 81t-81 120t-29.5 146.5t29.5 146.5t81 120t120 81t146.5 29.5t146.5 -29.5t120 -81t81 -120t29.5 -146.5zM745 364q0 67 -25.5 125.5t-69.5 102.5t-102.5 69.5t-125.5 25.5t-125.5 -25.5
t-102.5 -69.5t-69.5 -102.5t-25.5 -125.5t25.5 -125.5t69.5 -102t102.5 -69t125.5 -25.5t125.5 25.5t102.5 69t69.5 102t25.5 125.5zM527 155l-172 200v-200h-65v438h147q30 0 55 -10t43 -27.5t27.5 -41t9.5 -50.5q0 -26 -10 -49t-27.5 -40t-40 -26.5t-46.5 -9.5l161 -184
h-82zM505 466q0 11 -5 23t-14.5 21.5t-23 15.5t-29.5 6h-78v-142h70q35 0 57.5 20t22.5 56z" />
    <glyph glyph-name="macron" unicode="&#xaf;" horiz-adv-x="500" 
d="M100 493v66h300v-66h-300z" />
    <glyph glyph-name="degree" unicode="&#xb0;" horiz-adv-x="436" 
d="M406 554q0 -39 -15 -73.5t-40.5 -60t-59.5 -40t-73 -14.5t-73.5 14.5t-60 40t-40 60t-14.5 73.5t14.5 73t40 59.5t60 40.5t73.5 15t73 -15t59.5 -40.5t40.5 -59.5t15 -73zM325 554q0 22 -8.5 41.5t-23 34t-34 23t-41.5 8.5t-41.5 -8.5t-34 -23t-23 -34t-8.5 -41.5
t8.5 -41.5t23 -34t34 -23t41.5 -8.5t41.5 8.5t34 23t23 34t8.5 41.5z" />
    <glyph glyph-name="plusminus" unicode="&#xb1;" horiz-adv-x="724" 
d="M569 0v730h95v-730h-95zM420 328v-328h-95v328h-60v88h60v221q0 24 9.5 42t24.5 30t34 18t39 6q14 0 25 -0.5t25 -3.5v-83l-10 2q-9 1 -18 0q-15 -2 -24.5 -12t-9.5 -34v-186h65v-88h-65zM174 328v-328h-95v328h-60v88h60v221q0 24 9.5 42t24.5 30t34 18t39 6
q14 0 25 -0.5t25 -3.5v-83l-10 2q-9 1 -18 0q-15 -2 -24.5 -12t-9.5 -34v-186h65v-88h-65z" />
    <glyph glyph-name="twosuperior" unicode="&#xb2;" 
d="M282 648v82h166v-82h-166zM648 282v166h82v-166h-82zM282 282v166h166v-166h-166zM0 282v166h82v-166h-82zM282 0v82h166v-82h-166z" />
    <glyph glyph-name="threesuperior" unicode="&#xb3;" 
d="M282 648v82h166v-82h-166zM648 282v166h82v-166h-82zM282 282v166h166v-166h-166zM0 282v166h82v-166h-82zM282 0v82h166v-82h-166z" />
    <glyph glyph-name="acute" unicode="&#xb4;" horiz-adv-x="500" 
d="M259 493h-96l93 147h96z" />
    <glyph glyph-name="mu" unicode="&#xb5;" 
d="M282 648v82h166v-82h-166zM648 282v166h82v-166h-82zM282 282v166h166v-166h-166zM0 282v166h82v-166h-82zM282 0v82h166v-82h-166z" />
    <glyph glyph-name="paragraph" unicode="&#xb6;" horiz-adv-x="720" 
d="M552 -179v820h-84v-820h-93v426h-109q-47 0 -90 19t-76 52t-53 76t-20 91q0 52 18.5 97t52.5 78t82 51.5t106 18.5h359v-909h-93zM375 641h-84q-36 0 -66 -11t-51.5 -31t-33 -47.5t-11.5 -60.5q0 -34 12 -62.5t33 -49t49.5 -32t61.5 -11.5h90v305z" />
    <glyph glyph-name="periodcentered" unicode="&#xb7;" horiz-adv-x="195" 
d="M45 306v110h105v-110h-105z" />
    <glyph glyph-name="periodcentered" unicode="&#x2219;" horiz-adv-x="195" 
d="M45 306v110h105v-110h-105z" />
    <glyph glyph-name="cedilla" unicode="&#xb8;" horiz-adv-x="500" 
d="M350 -101q0 -20 -10 -35t-26.5 -24.5t-37 -14t-41.5 -4.5q-31 0 -54.5 9t-44.5 23l27 32q16 -12 34 -16.5t38 -4.5q14 0 26 7t12 22q0 14 -13 20t-27 6q-11 0 -17.5 -1t-15.5 -4l-21 22l64 78h66l-45 -57q39 0 62.5 -15t23.5 -43z" />
    <glyph glyph-name="onesuperior" unicode="&#xb9;" 
d="M282 648v82h166v-82h-166zM648 282v166h82v-166h-82zM282 282v166h166v-166h-166zM0 282v166h82v-166h-82zM282 0v82h166v-82h-166z" />
    <glyph glyph-name="ordmasculine" unicode="&#xba;" horiz-adv-x="476" 
d="M408 572q0 -38 -12.5 -71t-35 -58t-54 -39t-69.5 -14q-37 0 -68.5 12.5t-54 36t-35 56.5t-12.5 74q0 33 11.5 64.5t33.5 55.5t53 38.5t70 14.5t71 -14t54.5 -37.5t35 -54t12.5 -64.5zM67 270v66h341v-66h-341zM330 567q0 49 -25 77t-70 28q-43 0 -66.5 -30.5t-23.5 -72.5
q0 -51 23.5 -79.5t65.5 -28.5q51 0 73.5 30.5t22.5 75.5z" />
    <glyph glyph-name="guillemotright" unicode="&#xbb;" horiz-adv-x="369" 
d="M197 42v102l71 61l-71 60v100l142 -123v-75zM42 42v102l71 61l-71 60v100l142 -123v-75z" />
    <glyph glyph-name="onequarter" unicode="&#xbc;" 
d="M282 648v82h166v-82h-166zM648 282v166h82v-166h-82zM282 282v166h166v-166h-166zM0 282v166h82v-166h-82zM282 0v82h166v-82h-166z" />
    <glyph glyph-name="onehalf" unicode="&#xbd;" 
d="M282 648v82h166v-82h-166zM648 282v166h82v-166h-82zM282 282v166h166v-166h-166zM0 282v166h82v-166h-82zM282 0v82h166v-82h-166z" />
    <glyph glyph-name="threequarters" unicode="&#xbe;" 
d="M282 648v82h166v-82h-166zM648 282v166h82v-166h-82zM282 282v166h166v-166h-166zM0 282v166h82v-166h-82zM282 0v82h166v-82h-166z" />
    <glyph glyph-name="questiondown" unicode="&#xbf;" horiz-adv-x="441" 
d="M190 620v110h105v-110h-105zM425 80q-39 -46 -86 -69t-109 -23q-49 0 -87 15t-63.5 41.5t-39 63t-13.5 79.5q0 35 9 63t23 53t31.5 47.5t34.5 45.5q29 38 49 79.5t20 95.5h97q0 -38 -8.5 -70t-22 -60t-30.5 -52t-33 -46q-29 -38 -49.5 -72t-20.5 -78q0 -23 7 -44.5
t20 -38t32 -26t44 -9.5q40 0 72.5 21t56.5 51l66 -67v0z" />
    <glyph glyph-name="Agrave" unicode="&#xc0;" horiz-adv-x="676" 
d="M540 0l-88 236h-233l-88 -236h-106l280 730h64l282 -730h-111zM341 534q-2 3 -2.5 6.5t-1.5 6.5q-1 4 -2 7q-1 -3 -2 -7q-1 -3 -1.5 -6.5t-1.5 -5.5l-76 -205h163zM289 788l-93 147h96l93 -147h-96z" />
    <glyph glyph-name="Aacute" unicode="&#xc1;" horiz-adv-x="676" 
d="M540 0l-88 236h-233l-88 -236h-106l280 730h64l282 -730h-111zM341 534q-2 3 -2.5 6.5t-1.5 6.5q-1 4 -2 7q-1 -3 -2 -7q-1 -3 -1.5 -6.5t-1.5 -5.5l-76 -205h163zM381 788h-96l93 147h96z" />
    <glyph glyph-name="Acircumflex" unicode="&#xc2;" horiz-adv-x="676" 
d="M540 0l-88 236h-233l-88 -236h-106l280 730h64l282 -730h-111zM341 534q-2 3 -2.5 6.5t-1.5 6.5q-1 4 -2 7q-1 -3 -2 -7q-1 -3 -1.5 -6.5t-1.5 -5.5l-76 -205h163zM389 778l-53 83l-53 -83h-93l103 147h88l103 -147h-95z" />
    <glyph glyph-name="Atilde" unicode="&#xc3;" horiz-adv-x="676" 
d="M540 0l-88 236h-233l-88 -236h-106l280 730h64l282 -730h-111zM341 534q-2 3 -2.5 6.5t-1.5 6.5q-1 4 -2 7q-1 -3 -2 -7q-1 -3 -1.5 -6.5t-1.5 -5.5l-76 -205h163zM491 905q0 -25 -4.5 -47t-15 -38t-27 -25t-41.5 -9q-18 0 -37.5 9.5t-33.5 18.5q-13 8 -24 14t-23 6
q-11 0 -15 -11.5t-5 -34.5h-74q0 25 4 47t14 38t27 25t43 9q17 0 37 -9.5t34 -18.5q12 -8 23.5 -14t23.5 -6q11 0 15 11.5t5 34.5h74v0z" />
    <glyph glyph-name="Adieresis" unicode="&#xc4;" horiz-adv-x="676" 
d="M479 619v111h91v-111h-91zM104 619v111h91v-111h-91zM540 0l-88 236h-233l-88 -236h-106l280 730h64l282 -730h-111zM341 534q-2 3 -2.5 6.5t-1.5 6.5q-1 4 -2 7q-1 -3 -2 -7q-1 -3 -1.5 -6.5t-1.5 -5.5l-76 -205h163z" />
    <glyph glyph-name="Aring" unicode="&#xc5;" horiz-adv-x="676" 
d="M540 0l-88 236h-233l-88 -236h-106l263 685q-29 14 -47 40.5t-18 61.5q0 24 9 44.5t24 35.5t35.5 24t44.5 9t44.5 -9t35.5 -24t24 -35.5t9 -44.5q0 -34 -17 -60.5t-46 -40.5l265 -686h-111zM390 787q0 23 -15.5 38.5t-38.5 15.5t-38.5 -15.5t-15.5 -38.5t15.5 -38.5
t38.5 -15.5t38.5 15.5t15.5 38.5zM341 534q-2 3 -2.5 6.5t-1.5 6.5q-1 4 -2 7q-1 -3 -2 -7q-1 -3 -1.5 -6.5t-1.5 -5.5l-76 -205h163z" />
    <glyph glyph-name="AE" unicode="&#xc6;" horiz-adv-x="979" 
d="M501 0v236h-232l-156 -236h-113l483 730h426v-94h-308v-233h301v-94h-301v-215h327v-94h-427zM501 597l-169 -267h169v267z" />
    <glyph glyph-name="Ccedilla" unicode="&#xc7;" 
d="M691 125q-39 -55 -107 -93t-156 -43l-25 -32q39 0 62.5 -15t23.5 -43q0 -20 -10 -35t-26.5 -24.5t-37 -14t-41.5 -4.5q-31 0 -54.5 9t-44.5 23l27 32q16 -12 34 -16.5t38 -4.5q14 0 26 7t12 22q0 14 -13 20t-27 6q-11 0 -17.5 -1t-15.5 -4l-21 22l45 54q-62 7 -119 36.5
t-101.5 78t-71 114.5t-26.5 146q0 79 27 148t75 120t114.5 80t145.5 29q99 0 162.5 -31t107.5 -83l-74 -66q-38 39 -86 60.5t-108 21.5q-53 0 -100.5 -20t-83 -56t-56 -87t-20.5 -114q0 -71 24 -123.5t61.5 -87.5t83 -52.5t87.5 -17.5q53 0 110 23t104 78l72 -62v0z" />
    <glyph glyph-name="Egrave" unicode="&#xc8;" horiz-adv-x="553" 
d="M75 0v730h408v-94h-308v-233h301v-94h-301v-215h327v-94h-427zM240 788l-93 147h96l93 -147h-96z" />
    <glyph glyph-name="Eacute" unicode="&#xc9;" horiz-adv-x="553" 
d="M75 0v730h408v-94h-308v-233h301v-94h-301v-215h327v-94h-427zM311 788h-96l93 147h96z" />
    <glyph glyph-name="Ecircumflex" unicode="&#xca;" horiz-adv-x="553" 
d="M75 0v730h408v-94h-308v-233h301v-94h-301v-215h327v-94h-427zM328 788l-53 83l-53 -83h-93l103 147h88l103 -147h-95z" />
    <glyph glyph-name="Edieresis" unicode="&#xcb;" horiz-adv-x="553" 
d="M75 0v730h408v-94h-308v-233h301v-94h-301v-215h327v-94h-427zM311 788v111h91v-111h-91zM152 788v111h91v-111h-91z" />
    <glyph glyph-name="Igrave" unicode="&#xcc;" horiz-adv-x="250" 
d="M75 0v730h100v-730h-100zM78 788l-93 147h96l93 -147h-96z" />
    <glyph glyph-name="Iacute" unicode="&#xcd;" horiz-adv-x="250" 
d="M75 0v730h100v-730h-100zM173 788h-96l93 147h96z" />
    <glyph glyph-name="Icircumflex" unicode="&#xce;" horiz-adv-x="250" 
d="M75 0v730h100v-730h-100zM178 788l-53 83l-53 -83h-93l103 147h88l103 -147h-95z" />
    <glyph glyph-name="Idieresis" unicode="&#xcf;" horiz-adv-x="250" 
d="M75 0v730h100v-730h-100zM160 788v111h91v-111h-91zM1 788v111h91v-111h-91z" />
    <glyph glyph-name="Eth" unicode="&#xd0;" horiz-adv-x="726" 
d="M681 367q0 -76 -27 -143t-78.5 -116.5t-125.5 -78.5t-168 -29h-177v309h-70v94h70v327h186q93 0 166 -28.5t122.5 -78t75.5 -115.5t26 -141zM577 366q0 56 -20.5 105.5t-58 87t-90.5 59.5t-119 22h-84v-237h172v-94h-172v-219h65q81 0 139 24t95.5 63t55 88.5t17.5 100.5
z" />
    <glyph glyph-name="Ntilde" unicode="&#xd1;" horiz-adv-x="724" 
d="M569 0l-383 529q-2 2 -4 5.5t-4 6.5q-3 4 -5 8q0 -5 1 -9q0 -4 0.5 -8t0.5 -7v-525h-100v730h85l378 -519q2 -3 4.5 -7t4.5 -7q2 -4 4 -7q-1 5 -1 9q-1 5 -1 15v516h100v-730h-80zM513 878q0 -25 -4.5 -47t-15 -38t-27 -25t-41.5 -9q-18 0 -37.5 9.5t-33.5 18.5
q-13 8 -24 14t-23 6q-11 0 -15 -11.5t-5 -34.5h-74q0 25 4 47t14 38t27 25t43 9q17 0 37 -9.5t34 -18.5q12 -8 23.5 -14t23.5 -6q11 0 15 11.5t5 34.5h74v0z" />
    <glyph glyph-name="Ograve" unicode="&#xd2;" horiz-adv-x="838" 
d="M793 365q0 -80 -29.5 -148.5t-80 -119.5t-118.5 -80t-145 -29q-78 0 -146.5 28.5t-119.5 78.5t-80 119.5t-29 152.5q0 80 28 148.5t77.5 119t117.5 79t147 28.5q85 0 154.5 -29t119 -80t77 -120t27.5 -148zM689 369q0 59 -20 109.5t-56 87t-86.5 57.5t-110.5 21
q-59 0 -108.5 -21t-84.5 -57.5t-54.5 -87.5t-19.5 -111q0 -61 22 -112.5t59.5 -89t86.5 -58.5t103 -21t102.5 19.5t85.5 56.5t59 89t22 118zM369 788l-93 147h96l93 -147h-96z" />
    <glyph glyph-name="Oacute" unicode="&#xd3;" horiz-adv-x="838" 
d="M793 365q0 -80 -29.5 -148.5t-80 -119.5t-118.5 -80t-145 -29q-78 0 -146.5 28.5t-119.5 78.5t-80 119.5t-29 152.5q0 80 28 148.5t77.5 119t117.5 79t147 28.5q85 0 154.5 -29t119 -80t77 -120t27.5 -148zM689 369q0 59 -20 109.5t-56 87t-86.5 57.5t-110.5 21
q-59 0 -108.5 -21t-84.5 -57.5t-54.5 -87.5t-19.5 -111q0 -61 22 -112.5t59.5 -89t86.5 -58.5t103 -21t102.5 19.5t85.5 56.5t59 89t22 118zM453 788h-96l93 147h96z" />
    <glyph glyph-name="Ocircumflex" unicode="&#xd4;" horiz-adv-x="838" 
d="M793 365q0 -80 -29.5 -148.5t-80 -119.5t-118.5 -80t-145 -29q-78 0 -146.5 28.5t-119.5 78.5t-80 119.5t-29 152.5q0 80 28 148.5t77.5 119t117.5 79t147 28.5q85 0 154.5 -29t119 -80t77 -120t27.5 -148zM689 369q0 59 -20 109.5t-56 87t-86.5 57.5t-110.5 21
q-59 0 -108.5 -21t-84.5 -57.5t-54.5 -87.5t-19.5 -111q0 -61 22 -112.5t59.5 -89t86.5 -58.5t103 -21t102.5 19.5t85.5 56.5t59 89t22 118zM467 788l-53 83l-53 -83h-93l103 147h88l103 -147h-95z" />
    <glyph glyph-name="Otilde" unicode="&#xd5;" horiz-adv-x="838" 
d="M793 365q0 -80 -29.5 -148.5t-80 -119.5t-118.5 -80t-145 -29q-78 0 -146.5 28.5t-119.5 78.5t-80 119.5t-29 152.5q0 80 28 148.5t77.5 119t117.5 79t147 28.5q85 0 154.5 -29t119 -80t77 -120t27.5 -148zM689 369q0 59 -20 109.5t-56 87t-86.5 57.5t-110.5 21
q-59 0 -108.5 -21t-84.5 -57.5t-54.5 -87.5t-19.5 -111q0 -61 22 -112.5t59.5 -89t86.5 -58.5t103 -21t102.5 19.5t85.5 56.5t59 89t22 118zM566 922q0 -25 -4.5 -47t-15 -38t-27 -25t-41.5 -9q-18 0 -37.5 9.5t-33.5 18.5q-13 8 -24 14t-23 6q-11 0 -15 -11.5t-5 -34.5h-74
q0 25 4 47t14 38t27 25t43 9q17 0 37 -9.5t34 -18.5q12 -8 23.5 -14t23.5 -6q11 0 15 11.5t5 34.5h74v0z" />
    <glyph glyph-name="Odieresis" unicode="&#xd6;" horiz-adv-x="838" 
d="M725 619v111h91v-111h-91zM793 365q0 -80 -29.5 -148.5t-80 -119.5t-118.5 -80t-145 -29q-78 0 -146.5 28.5t-119.5 78.5t-80 119.5t-29 152.5q0 80 28 148.5t77.5 119t117.5 79t147 28.5q85 0 154.5 -29t119 -80t77 -120t27.5 -148zM689 369q0 59 -20 109.5t-56 87
t-86.5 57.5t-110.5 21q-59 0 -108.5 -21t-84.5 -57.5t-54.5 -87.5t-19.5 -111q0 -61 22 -112.5t59.5 -89t86.5 -58.5t103 -21t102.5 19.5t85.5 56.5t59 89t22 118zM22 619v111h91v-111h-91z" />
    <glyph glyph-name="multiply" unicode="&#xd7;" 
d="M282 648v82h166v-82h-166zM648 282v166h82v-166h-82zM282 282v166h166v-166h-166zM0 282v166h82v-166h-82zM282 0v82h166v-82h-166z" />
    <glyph glyph-name="Oslash" unicode="&#xd8;" horiz-adv-x="838" 
d="M793 365q0 -80 -29.5 -148.5t-80 -119.5t-118.5 -80t-145 -29q-72 0 -135 23.5t-113 66.5l-78 -78l-51 48l81 81q-38 48 -58.5 108.5t-20.5 129.5q0 80 28 148.5t77.5 119t117.5 79t147 28.5q72 0 132.5 -21t108.5 -59l80 80l51 -48l-81 -81q42 -49 64.5 -112.5
t22.5 -135.5zM584 590q-69 54 -168 54q-59 0 -108.5 -21t-84.5 -57.5t-54.5 -87.5t-19.5 -111q0 -47 13.5 -88t36.5 -75l385 386v0zM689 369q0 50 -14.5 93.5t-40.5 78.5l-389 -389q37 -32 81.5 -49t93.5 -17q54 0 102.5 19.5t85.5 56.5t59 89t22 118z" />
    <glyph glyph-name="Ugrave" unicode="&#xd9;" horiz-adv-x="711" 
d="M641 276q0 -65 -22 -118.5t-60 -91t-90.5 -58t-113.5 -20.5q-63 0 -115.5 19.5t-90 57t-58.5 90.5t-21 121v454h101v-454q0 -53 15 -90t40.5 -60t59 -33.5t69.5 -10.5t69.5 10.5t59.5 34t42 60t16 89.5v454h99v-454v0zM327 778l-93 147h96l93 -147h-96z" />
    <glyph glyph-name="Uacute" unicode="&#xda;" horiz-adv-x="711" 
d="M641 276q0 -65 -22 -118.5t-60 -91t-90.5 -58t-113.5 -20.5q-63 0 -115.5 19.5t-90 57t-58.5 90.5t-21 121v454h101v-454q0 -53 15 -90t40.5 -60t59 -33.5t69.5 -10.5t69.5 10.5t59.5 34t42 60t16 89.5v454h99v-454v0zM377 778h-96l93 147h96z" />
    <glyph glyph-name="Ucircumflex" unicode="&#xdb;" horiz-adv-x="711" 
d="M641 276q0 -65 -22 -118.5t-60 -91t-90.5 -58t-113.5 -20.5q-63 0 -115.5 19.5t-90 57t-58.5 90.5t-21 121v454h101v-454q0 -53 15 -90t40.5 -60t59 -33.5t69.5 -10.5t69.5 10.5t59.5 34t42 60t16 89.5v454h99v-454v0zM408 778l-53 83l-53 -83h-93l103 147h88l103 -147
h-95z" />
    <glyph glyph-name="Udieresis" unicode="&#xdc;" horiz-adv-x="711" 
d="M388 619v111h91v-111h-91zM234 619v111h91v-111h-91zM641 276q0 -65 -22 -118.5t-60 -91t-90.5 -58t-113.5 -20.5q-63 0 -115.5 19.5t-90 57t-58.5 90.5t-21 121v454h101v-454q0 -53 15 -90t40.5 -60t59 -33.5t69.5 -10.5t69.5 10.5t59.5 34t42 60t16 89.5v454h99v-454v0
z" />
    <glyph glyph-name="Yacute" unicode="&#xdd;" horiz-adv-x="645" 
d="M371 339v-339h-100v339l-251 391h116l176 -273q2 -2 3.5 -6t3.5 -7l4 -8l4 8q2 3 4 7t4 7l176 272h114zM367 778h-96l93 147h96z" />
    <glyph glyph-name="Thorn" unicode="&#xde;" horiz-adv-x="560" 
d="M533 369q0 -44 -18 -83.5t-48 -69.5t-70 -47.5t-84 -17.5h-138v-151h-100v730h100v-136h119q55 0 99.5 -17.5t75.5 -47.5t47.5 -71t16.5 -89zM429 375q0 60 -40 92.5t-110 32.5h-104v-255h110q63 0 103.5 33.5t40.5 96.5z" />
    <glyph glyph-name="germandbls" unicode="&#xdf;" horiz-adv-x="482" 
d="M447 190q0 -44 -12.5 -81t-35 -64t-55.5 -42t-73 -15q-33 0 -64 12v88q13 -7 27.5 -9.5t28.5 -2.5q40 0 63.5 26t23.5 82q0 43 -13 78.5t-33 61.5t-43.5 42.5t-44.5 21.5v66h8q19 0 39 7.5t37 22t28 36t11 49.5q0 18 -5 35t-16.5 30.5t-29.5 21.5t-43 8
q-42 0 -66.5 -30.5t-24.5 -87.5v-546h-94v539q0 94 46 148.5t139 54.5q91 0 138.5 -46t47.5 -121q0 -56 -27.5 -98.5t-81.5 -60.5q30 -15 53 -40t39 -55t24.5 -64t8.5 -67z" />
    <glyph glyph-name="agrave" unicode="&#xe0;" horiz-adv-x="461" 
d="M316 0v30q-55 -42 -130 -42q-39 0 -68.5 11t-49 30t-29 44.5t-9.5 54.5q0 37 17.5 65t47.5 47.5t71.5 29.5t89.5 10h62q0 38 -18 53t-65 15q-76 0 -128 -23l-33 71q15 9 33.5 15t39 9.5t40.5 5.5t37 2q87 0 137 -28.5t50 -95.5v-304h-95zM316 203h-27q-81 0 -121.5 -17.5
t-40.5 -57.5q0 -15 7.5 -25.5t20 -17.5t27.5 -10t30 -3q16 0 28.5 1.5t24.5 5t24.5 10t26.5 16.5v98zM200 493l-93 147h96l93 -147h-96z" />
    <glyph glyph-name="aacute" unicode="&#xe1;" horiz-adv-x="461" 
d="M316 0v30q-55 -42 -130 -42q-39 0 -68.5 11t-49 30t-29 44.5t-9.5 54.5q0 37 17.5 65t47.5 47.5t71.5 29.5t89.5 10h62q0 38 -18 53t-65 15q-76 0 -128 -23l-33 71q15 9 33.5 15t39 9.5t40.5 5.5t37 2q87 0 137 -28.5t50 -95.5v-304h-95zM316 203h-27q-81 0 -121.5 -17.5
t-40.5 -57.5q0 -15 7.5 -25.5t20 -17.5t27.5 -10t30 -3q16 0 28.5 1.5t24.5 5t24.5 10t26.5 16.5v98zM266 493h-96l93 147h96z" />
    <glyph glyph-name="acircumflex" unicode="&#xe2;" horiz-adv-x="461" 
d="M316 0v30q-55 -42 -130 -42q-39 0 -68.5 11t-49 30t-29 44.5t-9.5 54.5q0 37 17.5 65t47.5 47.5t71.5 29.5t89.5 10h62q0 38 -18 53t-65 15q-76 0 -128 -23l-33 71q15 9 33.5 15t39 9.5t40.5 5.5t37 2q87 0 137 -28.5t50 -95.5v-304h-95zM316 203h-27q-81 0 -121.5 -17.5
t-40.5 -57.5q0 -15 7.5 -25.5t20 -17.5t27.5 -10t30 -3q16 0 28.5 1.5t24.5 5t24.5 10t26.5 16.5v98zM289 493l-53 83l-53 -83h-93l103 147h88l103 -147h-95z" />
    <glyph glyph-name="atilde" unicode="&#xe3;" horiz-adv-x="461" 
d="M316 0v30q-55 -42 -130 -42q-39 0 -68.5 11t-49 30t-29 44.5t-9.5 54.5q0 37 17.5 65t47.5 47.5t71.5 29.5t89.5 10h62q0 38 -18 53t-65 15q-76 0 -128 -23l-33 71q15 9 33.5 15t39 9.5t40.5 5.5t37 2q87 0 137 -28.5t50 -95.5v-304h-95zM316 203h-27q-81 0 -121.5 -17.5
t-40.5 -57.5q0 -15 7.5 -25.5t20 -17.5t27.5 -10t30 -3q16 0 28.5 1.5t24.5 5t24.5 10t26.5 16.5v98zM394 610q0 -25 -4.5 -47t-15 -38t-27 -25t-41.5 -9q-18 0 -37.5 9.5t-33.5 18.5q-13 8 -24 14t-23 6q-11 0 -15 -11.5t-5 -34.5h-74q0 25 4 47t14 38t27 25t43 9
q17 0 37 -9.5t34 -18.5q12 -8 23.5 -14t23.5 -6q11 0 15 11.5t5 34.5h74v0z" />
    <glyph glyph-name="adieresis" unicode="&#xe4;" horiz-adv-x="461" 
d="M316 0v30q-55 -42 -130 -42q-39 0 -68.5 11t-49 30t-29 44.5t-9.5 54.5q0 37 17.5 65t47.5 47.5t71.5 29.5t89.5 10h62q0 38 -18 53t-65 15q-76 0 -128 -23l-33 71q15 9 33.5 15t39 9.5t40.5 5.5t37 2q87 0 137 -28.5t50 -95.5v-304h-95zM316 203h-27q-81 0 -121.5 -17.5
t-40.5 -57.5q0 -15 7.5 -25.5t20 -17.5t27.5 -10t30 -3q16 0 28.5 1.5t24.5 5t24.5 10t26.5 16.5v98zM271 493v111h91v-111h-91zM112 493v111h91v-111h-91z" />
    <glyph glyph-name="aring" unicode="&#xe5;" horiz-adv-x="461" 
d="M316 0v30q-55 -42 -130 -42q-39 0 -68.5 11t-49 30t-29 44.5t-9.5 54.5q0 37 17.5 65t47.5 47.5t71.5 29.5t89.5 10h62q0 38 -18 53t-65 15q-76 0 -128 -23l-33 71q15 9 33.5 15t39 9.5t40.5 5.5t37 2q87 0 137 -28.5t50 -95.5v-304h-95zM316 203h-27q-81 0 -121.5 -17.5
t-40.5 -57.5q0 -15 7.5 -25.5t20 -17.5t27.5 -10t30 -3q16 0 28.5 1.5t24.5 5t24.5 10t26.5 16.5v98zM355 599q0 -24 -9 -44.5t-24 -35.5t-35.5 -24t-44.5 -9t-44.5 9t-35.5 24t-24 35.5t-9 44.5t9 44.5t24 35.5t35.5 24t44.5 9t44.5 -9t35.5 -24t24 -35.5t9 -44.5zM296 599
q0 23 -15.5 38.5t-38.5 15.5t-38.5 -15.5t-15.5 -38.5t15.5 -38.5t38.5 -15.5t38.5 15.5t15.5 38.5z" />
    <glyph glyph-name="ae" unicode="&#xe6;" horiz-adv-x="764" 
d="M412 196q0 -24 8.5 -46.5t24 -39.5t38 -27t49.5 -10q49 0 79.5 14t56.5 37l56 -58q-39 -34 -85.5 -56t-107.5 -22q-57 0 -96.5 22.5t-68.5 65.5q-31 -48 -74 -68t-106 -20q-39 0 -68.5 11t-49 30t-29 44.5t-9.5 54.5q0 34 15.5 60t44 44t68.5 27t88 9h74q0 38 -19 59
t-66 21q-76 0 -128 -23l-33 71q15 9 33.5 15t39 9.5t40.5 5.5t37 2q59 0 98 -13.5t62 -45.5q26 26 63 42.5t80 16.5q47 0 84.5 -17.5t64 -48t41 -73t14.5 -93.5h-319zM628 268q-11 36 -38 55.5t-67 19.5q-41 0 -70 -20t-37 -55h212v0zM279 196q-81 0 -117.5 -16.5
t-36.5 -51.5q0 -30 23.5 -44.5t54.5 -14.5q19 0 40 6.5t38.5 21t28.5 39t11 60.5h-42z" />
    <glyph glyph-name="ccedilla" unicode="&#xe7;" horiz-adv-x="460" 
d="M438 89q-26 -36 -67.5 -64t-90.5 -35l-26 -33q39 0 62.5 -15t23.5 -43q0 -20 -10 -35t-26.5 -24.5t-37 -14t-41.5 -4.5q-31 0 -54.5 9t-44.5 23l27 32q16 -12 34 -16.5t38 -4.5q14 0 26 7t12 22q0 14 -13 20t-27 6q-11 0 -17.5 -1t-15.5 -4l-21 22l45 55q-45 6 -78.5 25
t-56 48t-33.5 65.5t-11 78.5q0 43 15 83t42.5 70.5t66 48.5t86.5 18q36 0 65 -9.5t52.5 -23.5t40 -31t27.5 -33l-69 -52q-8 10 -19 21t-25 20t-31.5 14.5t-39.5 5.5q-27 0 -48 -11.5t-36 -29.5t-22.5 -41t-7.5 -46q0 -66 33 -101t87 -35q37 0 66.5 18t54.5 47l65 -52v0z" />
    <glyph glyph-name="egrave" unicode="&#xe8;" horiz-adv-x="490" 
d="M130 196q1 -25 10 -47t25 -38t38.5 -25.5t49.5 -9.5q49 0 79.5 14t59.5 36l58 -60q-39 -34 -85.5 -56t-112.5 -22q-46 0 -85.5 15.5t-69 44t-46 70t-16.5 94.5q0 46 15.5 85.5t44 68.5t67.5 45.5t86 16.5t85.5 -17.5t66 -48t42.5 -73t15 -93.5h-327zM354 268
q-11 36 -40.5 55.5t-69.5 19.5q-41 0 -71.5 -20t-38.5 -55h220v0zM205 493l-93 147h96l93 -147h-96z" />
    <glyph glyph-name="eacute" unicode="&#xe9;" horiz-adv-x="490" 
d="M130 196q1 -25 10 -47t25 -38t38.5 -25.5t49.5 -9.5q49 0 79.5 14t59.5 36l58 -60q-39 -34 -85.5 -56t-112.5 -22q-46 0 -85.5 15.5t-69 44t-46 70t-16.5 94.5q0 46 15.5 85.5t44 68.5t67.5 45.5t86 16.5t85.5 -17.5t66 -48t42.5 -73t15 -93.5h-327zM354 268
q-11 36 -40.5 55.5t-69.5 19.5q-41 0 -71.5 -20t-38.5 -55h220v0zM277 493h-96l93 147h96z" />
    <glyph glyph-name="ecircumflex" unicode="&#xea;" horiz-adv-x="490" 
d="M130 196q1 -25 10 -47t25 -38t38.5 -25.5t49.5 -9.5q49 0 79.5 14t59.5 36l58 -60q-39 -34 -85.5 -56t-112.5 -22q-46 0 -85.5 15.5t-69 44t-46 70t-16.5 94.5q0 46 15.5 85.5t44 68.5t67.5 45.5t86 16.5t85.5 -17.5t66 -48t42.5 -73t15 -93.5h-327zM354 268
q-11 36 -40.5 55.5t-69.5 19.5q-41 0 -71.5 -20t-38.5 -55h220v0zM299 487l-53 83l-53 -83h-93l103 147h88l103 -147h-95z" />
    <glyph glyph-name="edieresis" unicode="&#xeb;" horiz-adv-x="490" 
d="M130 196q1 -25 10 -47t25 -38t38.5 -25.5t49.5 -9.5q49 0 79.5 14t59.5 36l58 -60q-39 -34 -85.5 -56t-112.5 -22q-46 0 -85.5 15.5t-69 44t-46 70t-16.5 94.5q0 46 15.5 85.5t44 68.5t67.5 45.5t86 16.5t85.5 -17.5t66 -48t42.5 -73t15 -93.5h-327zM354 268
q-11 36 -40.5 55.5t-69.5 19.5q-41 0 -71.5 -20t-38.5 -55h220v0zM279 493v111h91v-111h-91zM120 493v111h91v-111h-91z" />
    <glyph glyph-name="igrave" unicode="&#xec;" horiz-adv-x="215" 
d="M60 0v416h95v-416h-95zM63 493l-93 147h96l93 -147h-96z" />
    <glyph glyph-name="iacute" unicode="&#xed;" horiz-adv-x="215" 
d="M60 0v416h95v-416h-95zM155 493h-96l93 147h96z" />
    <glyph glyph-name="icircumflex" unicode="&#xee;" horiz-adv-x="215" 
d="M60 0v416h95v-416h-95zM161 493l-53 83l-53 -83h-93l103 147h88l103 -147h-95z" />
    <glyph glyph-name="idieresis" unicode="&#xef;" horiz-adv-x="215" 
d="M60 0v416h95v-416h-95zM142 493v111h91v-111h-91zM-17 493v111h91v-111h-91z" />
    <glyph glyph-name="eth" unicode="&#xf0;" horiz-adv-x="496" 
d="M461 212q0 -39 -12 -78.5t-38 -72t-66.5 -53t-97.5 -20.5q-46 0 -85 15.5t-67 45t-44 70.5t-16 92q0 42 14.5 81t41.5 69.5t66 48.5t88 18q32 0 56 -9.5t44 -27.5q-7 37 -26 78.5t-45 84.5l-106 -43l-33 68l94 38q-39 51 -84 93l40 39q33 -22 61.5 -48t53.5 -55l72 29
l32 -68l-56 -23q56 -84 84.5 -179.5t28.5 -192.5zM364 209q0 61 -32 96t-87 35q-27 0 -48 -10t-35.5 -27.5t-22 -41t-7.5 -50.5q0 -63 29.5 -99t82.5 -36q32 0 54.5 10t37 28t21.5 42.5t7 52.5z" />
    <glyph glyph-name="ntilde" unicode="&#xf1;" horiz-adv-x="476" 
d="M331 0v253q0 38 -19 62.5t-60 24.5q-27 0 -45.5 -11t-30 -28t-16.5 -37.5t-5 -39.5v-224h-95v416h95v-50q20 30 51 46t67 16q67 0 110 -39.5t43 -117.5v-271h-95zM392 610q0 -25 -4.5 -47t-15 -38t-27 -25t-41.5 -9q-18 0 -37.5 9.5t-33.5 18.5q-13 8 -24 14t-23 6
q-11 0 -15 -11.5t-5 -34.5h-74q0 25 4 47t14 38t27 25t43 9q17 0 37 -9.5t34 -18.5q12 -8 23.5 -14t23.5 -6q11 0 15 11.5t5 34.5h74v0z" />
    <glyph glyph-name="ograve" unicode="&#xf2;" horiz-adv-x="496" 
d="M461 215q0 -47 -15.5 -88.5t-44 -72.5t-67.5 -48.5t-87 -17.5q-46 0 -85 15.5t-67 45t-44 70.5t-16 92q0 42 14.5 81t41.5 69.5t66 48.5t88 18t88.5 -17.5t68 -46.5t44 -68t15.5 -81zM364 209q0 61 -32 96t-87 35q-27 0 -48 -10t-35.5 -27.5t-22 -41t-7.5 -50.5
q0 -63 29.5 -99t82.5 -36q32 0 54.5 10t37 28t21.5 42.5t7 52.5zM205 493l-93 147h96l93 -147h-96z" />
    <glyph glyph-name="oacute" unicode="&#xf3;" horiz-adv-x="496" 
d="M461 215q0 -47 -15.5 -88.5t-44 -72.5t-67.5 -48.5t-87 -17.5q-46 0 -85 15.5t-67 45t-44 70.5t-16 92q0 42 14.5 81t41.5 69.5t66 48.5t88 18t88.5 -17.5t68 -46.5t44 -68t15.5 -81zM364 209q0 61 -32 96t-87 35q-27 0 -48 -10t-35.5 -27.5t-22 -41t-7.5 -50.5
q0 -63 29.5 -99t82.5 -36q32 0 54.5 10t37 28t21.5 42.5t7 52.5zM276 493h-96l93 147h96z" />
    <glyph glyph-name="ocircumflex" unicode="&#xf4;" horiz-adv-x="496" 
d="M461 215q0 -47 -15.5 -88.5t-44 -72.5t-67.5 -48.5t-87 -17.5q-46 0 -85 15.5t-67 45t-44 70.5t-16 92q0 42 14.5 81t41.5 69.5t66 48.5t88 18t88.5 -17.5t68 -46.5t44 -68t15.5 -81zM364 209q0 61 -32 96t-87 35q-27 0 -48 -10t-35.5 -27.5t-22 -41t-7.5 -50.5
q0 -63 29.5 -99t82.5 -36q32 0 54.5 10t37 28t21.5 42.5t7 52.5zM296 484l-53 83l-53 -83h-93l103 147h88l103 -147h-95z" />
    <glyph glyph-name="otilde" unicode="&#xf5;" horiz-adv-x="496" 
d="M461 215q0 -47 -15.5 -88.5t-44 -72.5t-67.5 -48.5t-87 -17.5q-46 0 -85 15.5t-67 45t-44 70.5t-16 92q0 42 14.5 81t41.5 69.5t66 48.5t88 18t88.5 -17.5t68 -46.5t44 -68t15.5 -81zM364 209q0 61 -32 96t-87 35q-27 0 -48 -10t-35.5 -27.5t-22 -41t-7.5 -50.5
q0 -63 29.5 -99t82.5 -36q32 0 54.5 10t37 28t21.5 42.5t7 52.5zM396 610q0 -25 -4.5 -47t-15 -38t-27 -25t-41.5 -9q-18 0 -37.5 9.5t-33.5 18.5q-13 8 -24 14t-23 6q-11 0 -15 -11.5t-5 -34.5h-74q0 25 4 47t14 38t27 25t43 9q17 0 37 -9.5t34 -18.5q12 -8 23.5 -14
t23.5 -6q11 0 15 11.5t5 34.5h74v0z" />
    <glyph glyph-name="odieresis" unicode="&#xf6;" horiz-adv-x="496" 
d="M461 215q0 -47 -15.5 -88.5t-44 -72.5t-67.5 -48.5t-87 -17.5q-46 0 -85 15.5t-67 45t-44 70.5t-16 92q0 42 14.5 81t41.5 69.5t66 48.5t88 18t88.5 -17.5t68 -46.5t44 -68t15.5 -81zM364 209q0 61 -32 96t-87 35q-27 0 -48 -10t-35.5 -27.5t-22 -41t-7.5 -50.5
q0 -63 29.5 -99t82.5 -36q32 0 54.5 10t37 28t21.5 42.5t7 52.5zM278 493v111h91v-111h-91zM119 493v111h91v-111h-91z" />
    <glyph glyph-name="divide" unicode="&#xf7;" 
d="M282 648v82h166v-82h-166zM648 282v166h82v-166h-82zM282 282v166h166v-166h-166zM0 282v166h82v-166h-82zM282 0v82h166v-82h-166z" />
    <glyph glyph-name="oslash" unicode="&#xf8;" horiz-adv-x="496" 
d="M423 338q38 -53 38 -123q0 -47 -15.5 -88.5t-44 -72.5t-67.5 -48.5t-87 -17.5q-79 0 -133 43l-44 -43l-41 41l45 45q-39 56 -39 137q0 42 14.5 81t41.5 69.5t66 48.5t88 18q42 0 77 -12.5t62 -35.5l48 48l41 -41zM319 317q-29 23 -74 23q-27 0 -48 -10t-35.5 -27.5
t-22 -41t-7.5 -50.5q0 -40 12 -68l175 174v0zM364 209q0 32 -10 60l-175 -173q26 -20 65 -20q32 0 54.5 10t37 28t21.5 42.5t7 52.5z" />
    <glyph glyph-name="ugrave" unicode="&#xf9;" horiz-adv-x="481" 
d="M326 0v50q-17 -26 -47.5 -44t-70.5 -18q-75 0 -114 39.5t-39 117.5v271h95v-253q0 -35 20 -61t59 -26q25 0 43 11t30 28t18 37.5t6 39.5v224h95v-416h-95zM232 493l-93 147h96l93 -147h-96z" />
    <glyph glyph-name="uacute" unicode="&#xfa;" horiz-adv-x="481" 
d="M326 0v50q-17 -26 -47.5 -44t-70.5 -18q-75 0 -114 39.5t-39 117.5v271h95v-253q0 -35 20 -61t59 -26q25 0 43 11t30 28t18 37.5t6 39.5v224h95v-416h-95zM267 493h-96l93 147h96z" />
    <glyph glyph-name="ucircumflex" unicode="&#xfb;" horiz-adv-x="481" 
d="M326 0v50q-17 -26 -47.5 -44t-70.5 -18q-75 0 -114 39.5t-39 117.5v271h95v-253q0 -35 20 -61t59 -26q25 0 43 11t30 28t18 37.5t6 39.5v224h95v-416h-95zM298 493l-53 83l-53 -83h-93l103 147h88l103 -147h-95z" />
    <glyph glyph-name="udieresis" unicode="&#xfc;" horiz-adv-x="481" 
d="M326 0v50q-17 -26 -47.5 -44t-70.5 -18q-75 0 -114 39.5t-39 117.5v271h95v-253q0 -35 20 -61t59 -26q25 0 43 11t30 28t18 37.5t6 39.5v224h95v-416h-95zM277 493v111h91v-111h-91zM118 493v111h91v-111h-91z" />
    <glyph glyph-name="yacute" unicode="&#xfd;" horiz-adv-x="424" 
d="M233 -74q-7 -21 -17 -40t-25 -33.5t-37 -23t-53 -8.5q-18 0 -33 1.5t-34 7.5v86q10 -4 20.5 -6.5t20.5 -2.5q23 0 36.5 7t21.5 19t13 27.5t11 31.5l-145 424h103l92 -272q1 -3 2 -7l2 -8l2 -10l2 10q1 7 5 16l91 271h101zM258 493h-96l93 147h96z" />
    <glyph glyph-name="thorn" unicode="&#xfe;" horiz-adv-x="492" 
d="M457 214q0 -45 -13.5 -86t-38 -72t-58.5 -49.5t-74 -18.5q-43 0 -72.5 19.5t-45.5 42.5v-229h-95v909h95v-364q23 29 52 45.5t66 16.5q40 0 74 -16t58.5 -44.5t38 -68t13.5 -85.5zM360 210q0 26 -6.5 49.5t-20 41.5t-33.5 28.5t-47 10.5q-24 0 -43.5 -11t-33.5 -29
t-21.5 -41.5t-7.5 -48.5t7.5 -49t21.5 -43t33.5 -30.5t42.5 -11.5q27 0 47 10.5t33.5 28.5t20.5 42.5t7 52.5z" />
    <glyph glyph-name="ydieresis" unicode="&#xff;" horiz-adv-x="424" 
d="M233 -74q-7 -21 -17 -40t-25 -33.5t-37 -23t-53 -8.5q-18 0 -33 1.5t-34 7.5v86q10 -4 20.5 -6.5t20.5 -2.5q23 0 36.5 7t21.5 19t13 27.5t11 31.5l-145 424h103l92 -272q1 -3 2 -7l2 -8l2 -10l2 10q1 7 5 16l91 271h101zM248 493v111h91v-111h-91zM89 493v111h91v-111
h-91z" />
    <glyph glyph-name="OE" unicode="&#x152;" horiz-adv-x="1165" 
d="M687 0v100q-51 -52 -119.5 -82t-147.5 -30q-78 0 -146.5 28.5t-119.5 78.5t-80 119.5t-29 152.5q0 80 28 148.5t77.5 119t117.5 79t147 28.5q85 0 153.5 -28t118.5 -79v95h408v-94h-308v-233h301v-94h-301v-215h327v-94h-427zM689 369q0 59 -20 109.5t-56 87t-86.5 57.5
t-110.5 21q-59 0 -108.5 -21t-84.5 -57.5t-54.5 -87.5t-19.5 -111q0 -61 22 -112.5t59.5 -89t86.5 -58.5t103 -21t102.5 19.5t85.5 56.5t59 89t22 118z" />
    <glyph glyph-name="oe" unicode="&#x153;" horiz-adv-x="809" 
d="M457 196q0 -52 32.5 -87.5t87.5 -35.5q24 0 43.5 3.5t35.5 10.5t30 16t28 20l55 -57q-39 -34 -85.5 -56t-107.5 -22q-53 0 -96 22.5t-69 60.5q-27 -40 -69.5 -61.5t-94.5 -21.5q-46 0 -85 15.5t-67 45t-44 70.5t-16 92q0 42 14.5 81t41.5 69.5t66 48.5t88 18q54 0 96 -21
t70 -59q27 38 70.5 59t95.5 21q44 0 80.5 -17.5t63 -48t41 -73t14.5 -93.5h-319zM673 268q-11 36 -38 55.5t-67 19.5q-41 0 -70 -20t-37 -55h212v0zM364 209q0 61 -32 96t-87 35q-27 0 -48 -10t-35.5 -27.5t-22 -41t-7.5 -50.5q0 -63 29.5 -99t82.5 -36q32 0 54.5 10t37 28
t21.5 42.5t7 52.5z" />
    <glyph glyph-name="Scaron" unicode="&#x160;" horiz-adv-x="520" 
d="M483 193q0 -49 -18 -87t-48.5 -64.5t-71 -40t-86.5 -13.5q-56 0 -109.5 16t-104.5 58l57 77q15 -13 33.5 -23t38.5 -17t40.5 -10.5t39.5 -3.5q56 0 90.5 25t34.5 77q0 23 -10 41.5t-26.5 34t-39 28.5t-46.5 25q-39 20 -76.5 40t-67.5 46.5t-48 63t-18 88.5
q0 40 14.5 74.5t42 60t66.5 39.5t88 14q55 0 104.5 -16t92.5 -46l-54 -82q-34 25 -66 35.5t-78 10.5q-43 0 -74 -21t-31 -63q0 -30 12.5 -51t34 -37.5t50.5 -31l63 -31.5q31 -15 61.5 -33.5t55 -44t39.5 -59t15 -79.5zM299 788h-88l-103 147h95l53 -83l53 83h93z" />
    <glyph glyph-name="scaron" unicode="&#x161;" horiz-adv-x="364" 
d="M328 116q0 -26 -10.5 -49t-30 -40t-46 -27t-57.5 -10q-85 0 -150 53l47 71q26 -21 53.5 -30t44.5 -9q20 0 37 8.5t17 27.5q0 22 -17.5 35t-44.5 27q-20 10 -42.5 21t-41 26.5t-30.5 37t-12 53.5q0 24 11 45.5t29.5 37.5t43.5 25t54 9q30 0 65.5 -7t68.5 -30l-39 -75
q-23 16 -48 22.5t-43 6.5q-17 0 -32 -6t-15 -26q0 -17 19.5 -28.5t47.5 -25.5q20 -10 41.5 -22.5t39 -29t29 -39t11.5 -52.5zM228 493h-88l-103 147h95l53 -83l53 83h93z" />
    <glyph glyph-name="Ydieresis" unicode="&#x178;" horiz-adv-x="645" 
d="M371 339v-339h-100v339l-251 391h116l176 -273q2 -2 3.5 -6t3.5 -7l4 -8l4 8q2 3 4 7t4 7l176 272h114zM358 778v111h91v-111h-91zM199 778v111h91v-111h-91z" />
    <glyph glyph-name="florin" unicode="&#x192;" horiz-adv-x="304" 
d="M275 646l-10 2q-9 1 -18 0q-15 -2 -25.5 -12t-12.5 -34l-16 -186h65l-8 -88h-65l-36 -411q-2 -24 -13 -42t-27 -30t-36 -18t-39 -6q-14 0 -25 0.5t-25 3.5l7 83q4 -1 9 -2q9 -2 19 0q15 2 25.5 12t12.5 34l33 376h-60l8 88h60l19 221q2 24 13 42t27.5 30t36 18t39.5 6
q14 0 24.5 -0.5t24.5 -3.5z" />
    <glyph glyph-name="circumflex" unicode="&#x2c6;" horiz-adv-x="500" 
d="M302 493l-53 83l-53 -83h-93l103 147h88l103 -147h-95z" />
    <glyph glyph-name="tilde" unicode="&#x2dc;" horiz-adv-x="500" 
d="M400 610q0 -25 -4.5 -47t-15 -38t-27 -25t-41.5 -9q-18 0 -37.5 9.5t-33.5 18.5q-13 8 -24 14t-23 6q-11 0 -15 -11.5t-5 -34.5h-74q0 25 4 47t14 38t27 25t43 9q17 0 37 -9.5t34 -18.5q12 -8 23.5 -14t23.5 -6q11 0 15 11.5t5 34.5h74v0z" />
    <glyph glyph-name="endash" unicode="&#x2013;" horiz-adv-x="460" 
d="M45 168v86h370v-86h-370z" />
    <glyph glyph-name="emdash" unicode="&#x2014;" horiz-adv-x="645" 
d="M45 168v86h555v-86h-555z" />
    <glyph glyph-name="quoteleft" unicode="&#x2018;" horiz-adv-x="197" 
d="M171 730q-7 -14 -17 -44t-10 -62v-111h-105v64q0 24 8 47.5t19.5 44t24 36.5t20.5 25h60v0z" />
    <glyph glyph-name="quoteright" unicode="&#x2019;" horiz-adv-x="197" 
d="M158 666q0 -24 -8 -47.5t-19.5 -44t-24 -36.5t-20.5 -25h-60q7 14 17 44t10 62v111h105v-64v0z" />
    <glyph glyph-name="quotesinglbase" unicode="&#x201a;" horiz-adv-x="197" 
d="M155 46q0 -24 -8 -47.5t-19.5 -44t-24 -36.5t-20.5 -25h-60q7 14 17 44t10 62v111h105v-64v0z" />
    <glyph glyph-name="quotedblleft" unicode="&#x201c;" horiz-adv-x="341" 
d="M315 730q-7 -14 -17 -44t-10 -62v-111h-105v64q0 24 8 47.5t19.5 44t24 36.5t20.5 25h60v0zM169 730q-7 -14 -17 -44t-10 -62v-111h-105v64q0 24 8 47.5t19.5 44t24 36.5t20.5 25h60v0z" />
    <glyph glyph-name="quotedblright" unicode="&#x201d;" horiz-adv-x="341" 
d="M305 666q0 -24 -8 -47.5t-19.5 -44t-24 -36.5t-20.5 -25h-60q7 14 17 44t10 62v111h105v-64v0zM159 666q0 -24 -8 -47.5t-19.5 -44t-24 -36.5t-20.5 -25h-60q7 14 17 44t10 62v111h105v-64v0z" />
    <glyph glyph-name="quotedblbase" unicode="&#x201e;" horiz-adv-x="341" 
d="M301 46q0 -24 -8 -47.5t-19.5 -44t-24 -36.5t-20.5 -25h-60q7 14 17 44t10 62v111h105v-64v0zM155 46q0 -24 -8 -47.5t-19.5 -44t-24 -36.5t-20.5 -25h-60q7 14 17 44t10 62v111h105v-64v0z" />
    <glyph glyph-name="dagger" unicode="&#x2020;" horiz-adv-x="565" 
d="M330 382v-561h-95v561h-210v88h210v260h95v-260h210v-88h-210z" />
    <glyph glyph-name="daggerdbl" unicode="&#x2021;" horiz-adv-x="565" 
d="M330 94v-273h-95v273h-210v88h210v200h-210v88h210v260h95v-260h210v-88h-210v-200h210v-88h-210z" />
    <glyph glyph-name="bullet" unicode="&#x2022;" horiz-adv-x="382" 
d="M302 379q0 -23 -9 -43t-24 -35t-35 -24t-43 -9t-43 9t-35 24t-24 35t-9 43t9 43t24 35t35 24t43 9t43 -9t35 -24t24 -35t9 -43z" />
    <glyph glyph-name="ellipsis" unicode="&#x2026;" horiz-adv-x="576" 
d="M427 0v110h104v-110h-104zM236 0v110h104v-110h-104zM45 0v110h104v-110h-104z" />
    <glyph glyph-name="perthousand" unicode="&#x2030;" horiz-adv-x="1050" 
d="M1010 179q0 -41 -10 -75.5t-28.5 -60.5t-45.5 -40.5t-60 -14.5q-27 0 -52 11.5t-44.5 35t-31.5 59t-12 82.5q0 40 10 74.5t28.5 60t45 40t59.5 14.5q34 0 60.5 -15t44.5 -40.5t27 -59t9 -71.5zM334 556q0 -41 -10 -75.5t-28.5 -60.5t-45.5 -40.5t-60 -14.5
q-27 0 -52 11.5t-44.5 35t-31.5 59t-12 82.5q0 40 10 74.5t28.5 60t45 40t59.5 14.5q34 0 60.5 -15t44.5 -40.5t27 -59t9 -71.5zM166 0h-101l499 730h101zM690 179q0 -41 -10 -75.5t-28.5 -60.5t-45.5 -40.5t-60 -14.5q-27 0 -52 11.5t-44.5 35t-31.5 59t-12 82.5
q0 40 10 74.5t28.5 60t45 40t59.5 14.5q34 0 60.5 -15t44.5 -40.5t27 -59t9 -71.5zM926 176q0 19 -3.5 40t-10.5 37.5t-18 27.5t-26 11t-26.5 -10.5t-18.5 -27t-10.5 -37t-3.5 -41.5q0 -20 3 -40.5t10 -37t18 -27t26 -10.5q16 0 27.5 10.5t19 27t10.5 37t3 40.5zM250 553
q0 19 -3.5 40t-10.5 37.5t-18 27.5t-26 11t-26.5 -10.5t-18.5 -27t-10.5 -37t-3.5 -41.5q0 -20 3 -40.5t10 -37t18 -27t26 -10.5q16 0 27.5 10.5t19 27t10.5 37t3 40.5zM606 176q0 19 -3.5 40t-10.5 37.5t-18 27.5t-26 11t-26.5 -10.5t-18.5 -27t-10.5 -37t-3.5 -41.5
q0 -20 3 -40.5t10 -37t18 -27t26 -10.5q16 0 27.5 10.5t19 27t10.5 37t3 40.5z" />
    <glyph glyph-name="guilsinglleft" unicode="&#x2039;" horiz-adv-x="214" 
d="M31 167v75l141 123v-100l-71 -60l71 -61v-102z" />
    <glyph glyph-name="guilsinglright" unicode="&#x203a;" horiz-adv-x="214" 
d="M42 42v102l71 61l-71 60v100l142 -123v-75z" />
    <glyph glyph-name="trademark" unicode="&#x2122;" horiz-adv-x="819" 
d="M707 292v334l-142 -193h-24l-144 187v-328h-64v438h55l165 -214l160 214h58v-438h-64zM183 672v-380h-64v380h-87v58h242v-58h-91z" />
    <glyph glyph-name="NUL" horiz-adv-x="0" 
 />
    <glyph glyph-name="notequal" horiz-adv-x="512" 
d="M420 328v-328h-95v328h-60v88h60v221q0 24 9.5 42t24.5 30t34 18t39 6q14 0 25 -0.5t25 -3.5v-83l-10 2q-9 1 -18 0q-15 -2 -24.5 -12t-9.5 -34v-186h65v-88h-65zM174 328v-328h-95v328h-60v88h60v221q0 24 9.5 42t24.5 30t34 18t39 6q14 0 25 -0.5t25 -3.5v-83l-10 2
q-9 1 -18 0q-15 -2 -24.5 -12t-9.5 -34v-186h65v-88h-65z" />
    <glyph glyph-name="infinity" horiz-adv-x="724" 
d="M569 511v115h95v-115h-95zM569 0v416h95v-416h-95zM420 328v-328h-95v328h-60v88h60v221q0 24 9.5 42t24.5 30t34 18t39 6q14 0 25 -0.5t25 -3.5v-83l-10 2q-9 1 -18 0q-15 -2 -24.5 -12t-9.5 -34v-186h65v-88h-65zM174 328v-328h-95v328h-60v88h60v221q0 24 9.5 42
t24.5 30t34 18t39 6q14 0 25 -0.5t25 -3.5v-83l-10 2q-9 1 -18 0q-15 -2 -24.5 -12t-9.5 -34v-186h65v-88h-65z" />
    <glyph glyph-name="lessequal" 
d="M282 648v82h166v-82h-166zM648 282v166h82v-166h-82zM282 282v166h166v-166h-166zM0 282v166h82v-166h-82zM282 0v82h166v-82h-166z" />
    <glyph glyph-name="greaterequal" 
d="M282 648v82h166v-82h-166zM648 282v166h82v-166h-82zM282 282v166h166v-166h-166zM0 282v166h82v-166h-82zM282 0v82h166v-82h-166z" />
    <glyph glyph-name="partialdiff" 
d="M282 648v82h166v-82h-166zM648 282v166h82v-166h-82zM282 282v166h166v-166h-166zM0 282v166h82v-166h-82zM282 0v82h166v-82h-166z" />
    <glyph glyph-name="summation" 
d="M282 648v82h166v-82h-166zM648 282v166h82v-166h-82zM282 282v166h166v-166h-166zM0 282v166h82v-166h-82zM282 0v82h166v-82h-166z" />
    <glyph glyph-name="product" 
d="M282 648v82h166v-82h-166zM648 282v166h82v-166h-82zM282 282v166h166v-166h-166zM0 282v166h82v-166h-82zM282 0v82h166v-82h-166z" />
    <glyph glyph-name="pi" horiz-adv-x="844" 
d="M799 365q0 -78 -29.5 -146.5t-81 -120t-120 -81t-146.5 -29.5t-146.5 29.5t-120 81t-81 120t-29.5 146.5t29.5 146.5t81 120t120 81t146.5 29.5t146.5 -29.5t120 -81t81 -120t29.5 -146.5zM745 364q0 67 -25.5 125.5t-69.5 102.5t-102.5 69.5t-125.5 25.5t-125.5 -25.5
t-102.5 -69.5t-69.5 -102.5t-25.5 -125.5t25.5 -125.5t69.5 -102t102.5 -69t125.5 -25.5t125.5 25.5t102.5 69t69.5 102t25.5 125.5zM586 449q0 -29 -10.5 -53.5t-28.5 -43t-42 -29t-51 -10.5h-83v-167h-65v438h137q33 0 59.5 -10.5t45 -28.5t28.5 -43t10 -53zM519 453
q0 32 -21.5 51t-63.5 19h-63v-148h66q42 0 62 20t20 58z" />
    <glyph glyph-name="integral" 
d="M282 648v82h166v-82h-166zM648 282v166h82v-166h-82zM282 282v166h166v-166h-166zM0 282v166h82v-166h-82zM282 0v82h166v-82h-166z" />
    <glyph glyph-name="Omega" 
d="M282 648v82h166v-82h-166zM648 282v166h82v-166h-82zM282 282v166h166v-166h-166zM0 282v166h82v-166h-82zM282 0v82h166v-82h-166z" />
    <glyph glyph-name="radical" horiz-adv-x="510" 
d="M248 0h-62l-166 316h106l83 -170l176 584h100z" />
    <glyph glyph-name="approxequal" 
d="M282 648v82h166v-82h-166zM648 282v166h82v-166h-82zM282 282v166h166v-166h-166zM0 282v166h82v-166h-82zM282 0v82h166v-82h-166z" />
    <glyph glyph-name="Delta" 
d="M282 648v82h166v-82h-166zM648 282v166h82v-166h-82zM282 282v166h166v-166h-166zM0 282v166h82v-166h-82zM282 0v82h166v-82h-166z" />
    <glyph glyph-name="nonbreakingspace" horiz-adv-x="75" 
 />
    <glyph glyph-name="lozenge" 
d="M282 648v82h166v-82h-166zM648 282v166h82v-166h-82zM282 282v166h166v-166h-166zM0 282v166h82v-166h-82zM282 0v82h166v-82h-166z" />
    <glyph glyph-name="apple" 
d="M282 648v82h166v-82h-166zM648 282v166h82v-166h-82zM282 282v166h166v-166h-166zM0 282v166h82v-166h-82zM282 0v82h166v-82h-166z" />
    </font>
</defs>
</svg>
